<?xml version="1.0" encoding="utf-8"?>
<!-- Generator: Adobe Illustrator 27.9.4, SVG Export Plug-In . SVG Version: 9.03 Build 54784)  -->
<svg version="1.1" xmlns="http://www.w3.org/2000/svg" xmlns:xlink="http://www.w3.org/1999/xlink" x="0px" y="0px"
	 viewBox="0 0 750 500" style="enable-background:new 0 0 750 500;" xml:space="preserve">
<style type="text/css">
	.st0{opacity:0.33;}
	.st1{clip-path:url(#SVGID_00000176008460910249244740000009378448195647849608_);fill:#FFFFFF;}
	
		.st2{clip-path:url(#SVGID_00000176008460910249244740000009378448195647849608_);fill:none;stroke:#575F66;stroke-width:17;stroke-miterlimit:10;}
	.st3{clip-path:url(#SVGID_00000176008460910249244740000009378448195647849608_);fill:#E8AE08;}
	.st4{clip-path:url(#SVGID_00000176008460910249244740000009378448195647849608_);fill:#0C3B6C;}
	.st5{clip-path:url(#SVGID_00000176008460910249244740000009378448195647849608_);fill:#A1C4D6;}
	.st6{clip-path:url(#SVGID_00000176008460910249244740000009378448195647849608_);fill:#FFEEC5;}
	
		.st7{clip-path:url(#SVGID_00000176008460910249244740000009378448195647849608_);fill:none;stroke:#56ACE0;stroke-width:3;stroke-miterlimit:10;}
	.st8{clip-path:url(#SVGID_00000176008460910249244740000009378448195647849608_);fill:#E5E5E5;}
	
		.st9{clip-path:url(#SVGID_00000176008460910249244740000009378448195647849608_);fill:none;stroke:#E8AE08;stroke-width:11;stroke-miterlimit:10;}
	.st10{clip-path:url(#SVGID_00000176008460910249244740000009378448195647849608_);fill:#56ACE0;}
	
		.st11{clip-path:url(#SVGID_00000176008460910249244740000009378448195647849608_);fill:none;stroke:#0C3B6C;stroke-width:2;stroke-miterlimit:10;}
	
		.st12{clip-path:url(#SVGID_00000176008460910249244740000009378448195647849608_);fill:none;stroke:#FFEEC5;stroke-width:2;stroke-miterlimit:10;}
</style>
<g id="BACKGROUND">
</g>
<g id="OBJECTS">
	<g class="st0">
		<defs>
			<rect id="SVGID_1_" class="st0" width="750" height="500"/>
		</defs>
		<clipPath id="SVGID_00000176732306096390893940000003392470719596080299_">
			<use xlink:href="#SVGID_1_"  style="overflow:visible;"/>
		</clipPath>
		
			<rect style="clip-path:url(#SVGID_00000176732306096390893940000003392470719596080299_);fill:#FFFFFF;" width="750" height="500"/>
		
			<path style="clip-path:url(#SVGID_00000176732306096390893940000003392470719596080299_);fill:none;stroke:#575F66;stroke-width:17;stroke-miterlimit:10;" d="
			M20.22,222.25c-23.91,0-47.11-4.69-68.97-13.93c-21.1-8.92-40.04-21.7-56.31-37.96c-16.26-16.26-29.03-35.21-37.96-56.31
			c-9.25-21.86-13.93-45.06-13.93-68.97c0-23.91,4.69-47.11,13.93-68.97c8.92-21.1,21.7-40.04,37.96-56.31
			c16.26-16.26,35.21-29.03,56.31-37.96c21.86-9.24,45.06-13.93,68.97-13.93c23.91,0,47.11,4.69,68.97,13.93
			c21.1,8.92,40.04,21.7,56.31,37.96c16.26,16.26,29.03,35.21,37.96,56.31c9.25,21.86,13.93,45.06,13.93,68.97
			c0,23.91-4.69,47.11-13.93,68.97c-8.92,21.1-21.7,40.04-37.96,56.31c-16.26,16.26-35.21,29.03-56.31,37.96
			C67.33,217.57,44.12,222.25,20.22,222.25z M20.22-82.15c-33.99,0-65.94,13.24-89.97,37.27c-24.03,24.03-37.27,55.98-37.27,89.97
			c0,33.99,13.24,65.94,37.27,89.97c24.03,24.03,55.98,37.27,89.97,37.27c33.99,0,65.94-13.24,89.97-37.27
			c24.03-24.03,37.27-55.98,37.27-89.97c0-33.99-13.24-65.94-37.27-89.97C86.15-68.92,54.2-82.15,20.22-82.15z"/>
		<path style="clip-path:url(#SVGID_00000176732306096390893940000003392470719596080299_);fill:#E8AE08;" d="M883.97,250.58H666.19
			c-3.05,0-5.52-2.47-5.52-5.52l0,0c0-3.05,2.47-5.52,5.52-5.52h217.78c3.05,0,5.52,2.47,5.52,5.52l0,0
			C889.49,248.1,887.02,250.58,883.97,250.58z"/>
		<path style="clip-path:url(#SVGID_00000176732306096390893940000003392470719596080299_);fill:#0C3B6C;" d="M786.6,25.36H242.5
			c-14.05,0-25.45-11.39-25.45-25.45v0c0-14.05,11.39-25.45,25.45-25.45h544.1c14.05,0,25.45,11.39,25.45,25.45v0
			C812.05,13.97,800.66,25.36,786.6,25.36z"/>
		<path style="clip-path:url(#SVGID_00000176732306096390893940000003392470719596080299_);fill:#A1C4D6;" d="M755.35,150.69H648.98
			c-10.89,0-19.73-8.83-19.73-19.73l0,0c0-10.89,8.83-19.73,19.73-19.73h106.37c10.89,0,19.73,8.83,19.73,19.73l0,0
			C775.08,141.86,766.25,150.69,755.35,150.69z"/>
		<path style="clip-path:url(#SVGID_00000176732306096390893940000003392470719596080299_);fill:#FFEEC5;" d="M53.19,394.65H-53.19
			c-10.89,0-19.73-8.83-19.73-19.73v0c0-10.89,8.83-19.73,19.73-19.73H53.19c10.89,0,19.73,8.83,19.73,19.73v0
			C72.91,385.82,64.08,394.65,53.19,394.65z"/>
		
			<path style="clip-path:url(#SVGID_00000176732306096390893940000003392470719596080299_);fill:none;stroke:#56ACE0;stroke-width:3;stroke-miterlimit:10;" d="
			M746.29,566.03c-8.16,0.06-16.1-1.49-23.59-4.6c-7.23-3-13.73-7.32-19.32-12.83c-5.59-5.52-10-11.96-13.09-19.14
			c-3.21-7.44-4.86-15.36-4.92-23.52c-0.06-8.16,1.49-16.1,4.6-23.59c3-7.23,7.32-13.73,12.83-19.32c5.52-5.59,11.96-10,19.14-13.09
			c7.44-3.21,15.36-4.86,23.52-4.92c8.16-0.06,16.1,1.49,23.59,4.6c7.23,3,13.73,7.32,19.32,12.83c5.59,5.52,10,11.96,13.09,19.14
			c3.21,7.44,4.86,15.36,4.92,23.52c0.06,8.16-1.49,16.1-4.6,23.59c-3,7.23-7.32,13.73-12.83,19.32c-5.52,5.59-11.96,10-19.14,13.09
			C762.37,564.31,754.45,565.97,746.29,566.03z M745.58,462.07c-11.61,0.08-22.49,4.67-30.64,12.94
			c-8.15,8.26-12.6,19.21-12.52,30.81c0.08,11.61,4.67,22.49,12.94,30.64c8.26,8.15,19.21,12.6,30.81,12.52
			c11.61-0.08,22.49-4.67,30.64-12.94c8.15-8.26,12.6-19.21,12.52-30.81c-0.08-11.61-4.67-22.49-12.94-30.64
			C768.12,466.44,757.18,461.99,745.58,462.07z"/>
		<path style="clip-path:url(#SVGID_00000176732306096390893940000003392470719596080299_);fill:#0C3B6C;" d="M273.93,466.07H-8.14
			c-3.05,0-5.52-2.47-5.52-5.52l0,0c0-3.05,2.47-5.52,5.52-5.52h282.07c3.05,0,5.52,2.47,5.52,5.52l0,0
			C279.45,463.59,276.98,466.07,273.93,466.07z"/>
		<path style="clip-path:url(#SVGID_00000176732306096390893940000003392470719596080299_);fill:#E5E5E5;" d="M760.7,45.09H289.17
			c-10.89,0-19.73-8.83-19.73-19.73l0,0c0-10.89,8.83-19.73,19.73-19.73H760.7c10.89,0,19.73,8.83,19.73,19.73l0,0
			C780.43,36.25,771.6,45.09,760.7,45.09z"/>
		
			<ellipse transform="matrix(0.7071 -0.7071 0.7071 0.7071 -135.1031 673.8322)" style="clip-path:url(#SVGID_00000176732306096390893940000003392470719596080299_);fill:#0C3B6C;" cx="745.84" cy="500" rx="112.8" ry="112.8"/>
		
			<ellipse transform="matrix(0.7071 -0.7071 0.7071 0.7071 -135.1031 673.8322)" style="clip-path:url(#SVGID_00000176732306096390893940000003392470719596080299_);fill:none;stroke:#E8AE08;stroke-width:11;stroke-miterlimit:10;" cx="745.84" cy="500" rx="142.15" ry="142.15"/>
		<path style="clip-path:url(#SVGID_00000176732306096390893940000003392470719596080299_);fill:#56ACE0;" d="M74.16,84.14H-109.7
			c-5.42,0-9.86-4.44-9.86-9.86l0,0c0-5.42,4.44-9.86,9.86-9.86H74.16c5.42,0,9.86,4.44,9.86,9.86l0,0
			C84.03,79.7,79.59,84.14,74.16,84.14z"/>
		
			<circle style="clip-path:url(#SVGID_00000176732306096390893940000003392470719596080299_);fill:none;stroke:#0C3B6C;stroke-width:2;stroke-miterlimit:10;" cx="625.56" cy="130.96" r="39.45"/>
		
			<ellipse transform="matrix(0.1637 -0.9865 0.9865 0.1637 -328.934 533.0748)" style="clip-path:url(#SVGID_00000176732306096390893940000003392470719596080299_);fill:none;stroke:#FFEEC5;stroke-width:2;stroke-miterlimit:10;" cx="149.94" cy="460.54" rx="69.03" ry="69.03"/>
		
			<ellipse transform="matrix(0.225 -0.9744 0.9744 0.225 -204.1032 255.1729)" style="clip-path:url(#SVGID_00000176732306096390893940000003392470719596080299_);fill:none;stroke:#FFEEC5;stroke-width:2;stroke-miterlimit:10;" cx="58.35" cy="255.89" rx="49.57" ry="49.57"/>
		
			<ellipse transform="matrix(0.2276 -0.9738 0.9738 0.2276 -204.1004 254.4772)" style="clip-path:url(#SVGID_00000176732306096390893940000003392470719596080299_);fill:#E8AE08;" cx="58.35" cy="255.89" rx="22.56" ry="22.56"/>
		
			<circle style="clip-path:url(#SVGID_00000176732306096390893940000003392470719596080299_);fill:#E5E5E5;" cx="625.56" cy="130.96" r="11.93"/>
		<path style="clip-path:url(#SVGID_00000176732306096390893940000003392470719596080299_);fill:#E5E5E5;" d="M418.25,438.68H-8.14
			c-3.05,0-5.52-2.47-5.52-5.52l0,0c0-3.05,2.47-5.52,5.52-5.52h426.4c3.05,0,5.52,2.47,5.52,5.52l0,0
			C423.78,436.21,421.3,438.68,418.25,438.68z"/>
	</g>
</g>
</svg>
