<?xml version="1.0" encoding="utf-8"?>
<!-- Generator: Adobe Illustrator 27.9.4, SVG Export Plug-In . SVG Version: 9.03 Build 54784)  -->
<svg version="1.1" id="Capa_1" xmlns="http://www.w3.org/2000/svg" xmlns:xlink="http://www.w3.org/1999/xlink" x="0px" y="0px"
	 viewBox="0 0 800 800" style="enable-background:new 0 0 800 800;" xml:space="preserve">
<style type="text/css">
	.st0{fill:#FFFFFF;}
	.st1{fill:#85807F;}
	.st2{fill:#211715;}
	.st3{fill:#4793CF;}
	.st4{fill:#FFDA71;}
</style>
<g>
	<path class="st0" d="M275.4,294.5c2-1.9,4.8-2.9,7.5-2.8c3.6-0.1,6.9,1.7,8.7,4.8c3,5.1,2.8,14.6,0.8,20.4
		c-1.4,4.1-3.7,10.5-9.3,15c-2.5,2.1-5.7,3-8.9,2.6l-0.9-0.1c-0.8,2.8-1.9,5.6-3.1,8.3c-2.3,6.3-15.3,28.7-31.7,36.5v4.8
		c-1.2,1-26.8,21.1-28.7,22.5h-4.5c-1.9-1.4-27.5-21.5-28.7-22.5v-5.7c-7-3.9-13.2-9.2-18.2-15.5c-6.9-8.3-12-18-15.1-28.4
		c-3.4,0.7-6.9-0.2-9.6-2.4c-5.5-4.5-7.9-10.9-9.3-15c-2-5.8-2.1-15.3,0.8-20.4c1.8-3.1,5.1-5,8.7-4.8c2.8-0.1,5.5,0.9,7.5,2.8
		c0,0-5.5-56,62.8-56S275.4,294.5,275.4,294.5z"/>
	<path class="st0" d="M660.9,309.8c2-1.8,4.6-2.8,7.4-2.7c3.5-0.1,6.7,1.7,8.5,4.7c2.9,5,2.8,14.2,0.8,19.9c-1.4,4-3.6,10.2-9,14.6
		c-2.4,2-5.5,2.9-8.6,2.5l-0.6-0.1c-1,3-2.3,5.6-2.7,7c-2.1,5.8-13.9,26.1-28.8,34.4v4.2c-1.2,0.9-25,19.8-26.8,21h-4.2
		c-1.8-1.3-25.7-20.1-26.8-21v-2.1c-8.2-4.1-15.4-9.9-21.1-17c-6.4-7.8-11.3-16.7-14.2-26.4c-3.2,0.6-6.6-0.3-9.1-2.4
		c-5.4-4.4-7.6-10.6-9-14.6c-1.9-5.7-2.1-14.9,0.8-19.9c1.7-3,5-4.8,8.5-4.7c2.7-0.1,5.4,0.8,7.4,2.7c0,0-7.6-53.7,63.2-53.7
		C668.5,256.1,660.9,309.8,660.9,309.8z"/>
	<path class="st1" d="M525.8,252.9c5.6-12.4,14.3-23.2,25.4-31.2c24.1-16.7,55.4-19,81.7-6.1c16.7-20.3,42.2-9.7,45.4,6.8
		c2.1,10.7,2.7,17.4,7.6,27.1c5.1,10,9.3,11.2,18.1,15.4c-6.7,9.9-15.5,18.5-29.8,16.2c0.3,8.9-0.9,17.9-3.4,26.4
		c-0.8-0.2-1.6-0.3-2.4-0.3c-2.6-0.1-5.2,0.8-7.2,2.5c-10.7-2.2-21.8-12.9-28.2-21c-6.1-7.8-9.9-17.2-13.1-27.7
		c-9.8,11-26.4,20.1-44.8,30.2c-10.1,4.7-20.5,8.8-31.1,12.2l-10.8,6.6c-2-1.8-4.6-2.8-7.4-2.7c-0.9,0-1.8,0.1-2.7,0.4
		c-2.6-8.6-3.8-17.5-3.6-26.5c0.2-6.4,1.3-12.8,3-19C523.4,258.9,524.5,255.9,525.8,252.9z"/>
	<path class="st0" d="M575,474.3c1.7,4.7,3.3,9.4,4.9,13.9c6.5,19,10.1,27.1,17.6,45.5h2.7c7.5-18.4,11.1-26.5,17.6-45.5
		c8.1-23.6,18.1-49.5,24.5-74.1c-2.1-0.9-3.8-1.6-3.8-1.6c0.7-2.7,0-5.5-1.8-7.6c-2.7-3.1-6.1-7.6-8.8-10.7
		c-1.2,0.9-25,19.8-26.8,21h-4.2c-1.8-1.3-25.7-20.1-26.8-21c-2.8,3.1-6.1,7.6-8.8,10.7c-1.8,2.1-2.5,4.9-1.8,7.6l-3.8,1.4
		C560.5,433.8,568.1,454.6,575,474.3z"/>
	<path class="st1" d="M193.3,189.4c-11.8,2-22.9,6.8-32.5,13.9c-20.1,14.6-32.3,37.7-33,62.6c-0.3,8.9,0.9,17.8,3.3,26.4
		c1.1-0.3,2.2-0.5,3.3-0.5c2.8-0.1,5.5,0.9,7.5,2.8l10.7-9c8-8.9,22.1-22.4,32.1-27.6c1.2-0.6,2.7,0.2,3.1,2.2
		c0.4,1.5,0.5,3.1,0.3,4.7c-0.2,1.3,0.6,2.6,2,2.8c0.5,0.1,1,0,1.5-0.2c7.1-3.9,19.7-11.9,28.6-15.6c4.5-0.3,9,0.3,13.3,1.6
		c4.5,1.9,8.6,4.4,12.2,7.7c8.1,6.9,15.8,16.4,19.2,25l10.6,8.4c2-1.9,4.8-2.9,7.5-2.8c1,0,2,0.2,3,0.4c2.4-8.5,3.5-17.4,3.2-26.3
		c-1.3-31.6-17.3-51.2-32.6-62.3c-13.9-10.3-30.8-15.7-48-15.5C203.4,188.1,198.3,188.5,193.3,189.4z"/>
	<path class="st2" d="M565.7,393.3c-0.2,2.8-0.6,5.7-1,8.5c-0.2,1.7-0.5,3.5-0.9,5.2c-0.1,0.2-0.5,1.2-0.2,0.6
		c-0.2,0.3-0.3,0.6-0.5,1c-0.3,0.5,0.3-0.4,0,0.1c-0.1,0.1-0.2,0.3-0.3,0.4c-0.2,0.3-0.6,0.5-0.9,0.7c-0.9,0.5-1.9,0.9-2.8,1.3
		c-4.9,2.2-9.8,4.6-14.8,6.8c-1.3,0.6-2.5,1.2-3.8,1.7c-0.5,0.2-0.9,0.4-1.4,0.6c-0.9,0.4,0.8-0.3,0.1,0c-1.9,0.6-3,2.5-2.5,4.4
		c0.5,1.9,2.5,3,4.4,2.5c2-0.7,3.9-1.7,5.8-2.6c3-1.4,6.1-2.8,9.1-4.2c2.2-1,4.5-2.1,6.7-3.1c0.2-0.1,0.4-0.1,0.5-0.2
		c0,0-1.3,0.5-0.6,0.3c0.4-0.1,0.7-0.3,1.1-0.4c0.7-0.3,1.3-0.6,2-1c2.1-1.3,3.8-3.3,4.7-5.6c0.6-1.9,1-3.8,1.2-5.7
		c0.6-3.7,1.2-7.3,1.4-11c0-2-1.6-3.6-3.6-3.6S565.6,391.4,565.7,393.3L565.7,393.3z"/>
	<path class="st2" d="M622.3,391.7c0.3,5.3,1,10.7,2,15.9c0.8,4.4,4,8,8.2,9.5c1.3,0.5-0.9-0.5,0,0c0.3,0.2,0.7,0.3,1,0.5
		c1,0.5,2.1,1,3.1,1.5c2.8,1.3,5.6,2.7,8.5,4c1.9,0.9,3.8,1.9,5.8,2.7c1.7,0.9,3.8,0.4,4.9-1.3c1-1.7,0.4-3.9-1.3-4.9
		c-4.2-1.8-8.2-3.9-12.3-5.8c-2-0.9-4-1.9-5.9-2.8c-1-0.4-2-0.9-3-1.4c-0.9-0.5-1.5-1.4-1.7-2.4c-0.5-1.9-0.8-3.9-1.1-5.9
		c-0.5-3.2-0.9-6.3-1-9.5c0-1.9-1.6-3.5-3.6-3.6C623.9,388.1,622.3,389.7,622.3,391.7L622.3,391.7z"/>
	<path class="st2" d="M585,363.5c3.9,2,8.3,3,12.7,2.9c4.6,0.2,9.1-1.2,12.9-3.8c1.4-1.4,1.4-3.6,0-5c-1.4-1.3-3.6-1.3-5,0
		c1.1-0.9,0.3-0.2,0-0.1c-0.3,0.2-0.5,0.3-0.8,0.4c-0.1,0.1-0.3,0.1-0.4,0.2c-0.3,0.2-0.5,0.1,0.2-0.1c-0.4,0.1-0.7,0.2-1.1,0.4
		c-1,0.3-2,0.5-3,0.7c0.5-0.1,0.1,0-0.2,0s-0.6,0.1-0.9,0.1c-0.7,0-1.4,0.1-2.1,0.1c-0.6,0-1.3,0-1.9-0.1c-0.3,0-0.6,0-0.9-0.1
		c-0.1,0-1.2-0.2-0.3,0c-0.9-0.2-1.9-0.4-2.8-0.6c-0.4-0.1-0.8-0.3-1.2-0.4c-0.9-0.3,0.6,0.3-0.2-0.1c-0.5-0.2-1-0.5-1.4-0.7
		c-1.7-1-3.9-0.4-4.9,1.3C582.7,360.3,583.3,362.5,585,363.5L585,363.5z"/>
	<path class="st2" d="M595.7,333.8c0.6,2.1,1,4.2,1.4,6.3l-0.1-0.9c0,0.3,0,0.6,0,0.9l0.1-0.9c0,0.1-0.1,0.3-0.1,0.4l0.4-0.8
		c0,0.1-0.1,0.2-0.1,0.3l0.6-0.7c-0.1,0.1-0.1,0.1-0.2,0.2l0.7-0.6c-0.2,0.1-0.3,0.2-0.5,0.3l0.8-0.4c-0.3,0.1-0.6,0.2-0.8,0.2
		l0.9-0.1c-0.3,0-0.5,0-0.8,0l0.9,0.1c-0.3,0-0.6-0.1-0.9-0.2c-0.5-0.1-1-0.2-1.4-0.1c-0.5,0-0.9,0.2-1.3,0.4
		c-1.7,1-2.3,3.2-1.3,4.9c0,0,0,0,0,0c0.5,0.8,1.2,1.4,2.1,1.6c0.7,0.1,1.4,0.3,2.1,0.3c1.1,0,2.2-0.3,3.2-0.8
		c1.3-0.6,2.2-1.7,2.5-3c0.2-1.1,0.2-2.2,0-3.2c-0.3-2-0.8-4.1-1.3-6.1c-0.6-1.9-2.5-3-4.4-2.4C596.3,330,595.3,331.9,595.7,333.8z"
		/>
	<path class="st2" d="M562.5,315.7c-1.1,3.4-0.4,11.4,6.2,12c8.6-0.1,9.1-9.6,6.2-14.1C572.4,309.9,565.4,308.4,562.5,315.7z"/>
	<path class="st2" d="M631.5,315.7c1.1,3.4,0.4,11.4-6.2,12c-8.6-0.1-9.1-9.6-6.2-14.1C621.6,309.9,628.5,308.4,631.5,315.7z"/>
	<path class="st2" d="M657.2,342.5c-0.6,3.6-1.7,7-3.3,10.3c-0.4,0.9-0.7,1.7-1,2.6c0.4-1-0.1,0.1-0.2,0.3c-0.2,0.4-0.3,0.7-0.5,1.1
		c-2.1,4.1-4.5,8.1-7.2,11.8c-6.3,8.9-15,18.5-26,21.1c-4.5,1-2.6,7.9,1.9,6.9c9.7-2.3,17.8-9.3,24.2-16.7
		c5.5-6.2,10.2-13.1,13.8-20.6c2.4-4.7,4.2-9.7,5.2-14.9c0.5-1.9-0.6-3.8-2.5-4.4C659.7,339.5,657.7,340.6,657.2,342.5L657.2,342.5z
		"/>
	<path class="st2" d="M529.6,344.1c3,12.8,9,24.7,17.6,34.7c8.6,9.9,19.9,18.2,33.1,20.2c1.9,0.5,3.8-0.6,4.4-2.5
		c0.5-1.9-0.6-3.8-2.5-4.4c-12.1-1.8-22.1-9.3-30-18.4c-7.7-9.1-13.2-19.9-15.8-31.6C535.4,337.8,528.6,339.7,529.6,344.1
		L529.6,344.1z"/>
	<path class="st2" d="M535.6,307.3c-4.3-3.9-10.5-4.8-15.8-2.4c-3.7,1.9-6.4,5.3-7.3,9.4c-2.3,9.9-0.4,20.3,5.3,28.7
		c3.6,5.4,9.3,10.3,16.3,9.4c1.9-0.1,3.5-1.6,3.6-3.6c0-2-1.6-3.5-3.6-3.6c-5.5,0.7-9.2-3.8-11.6-8.2c-2-3.7-3.3-7.7-3.8-11.9
		c-0.3-4-0.4-9,2.1-12.4c-0.3,0.4,0.8-0.8,0.9-0.9c0.7-0.5,1.5-0.9,2.4-1.1c2.3-0.6,4.7-0.1,6.5,1.4
		C533.9,315.4,539,310.4,535.6,307.3L535.6,307.3z"/>
	<path class="st2" d="M663.4,312.3c1.7-1.4,4-2,6.2-1.5c1,0.2,1.9,0.6,2.7,1.2c-0.3-0.2,0.6,0.6,0.5,0.5c0.1,0.1,0.7,0.9,0.3,0.4
		c2.4,3.4,2.4,8.4,2.1,12.4c-0.6,7.6-6,21.3-15.4,20c-2,0-3.5,1.6-3.6,3.6c0,1.9,1.6,3.5,3.6,3.6c11.5,1.5,18.4-11,21.2-20.2
		c2.5-8.2,2.6-21.2-5.4-26.5c-5.5-3.4-12.5-2.7-17.3,1.6C655,310.4,660,315.4,663.4,312.3L663.4,312.3z"/>
	<path class="st3" d="M240.1,443.5c4.4-16,8.5-32.1,12-47.6c2.8,1.8,6.2,4.2,9.8,7c31.1,12.2,58.3,21.2,72.2,42.4
		c7.8,11.8,12.4,27.4,15.5,47.7c4,30.3,11.2,96.6,13.2,118.4h-242c0-5.6-0.2-15.4-0.3-27.2l-5.1,3.4c-4.8,3.9-9.9,7.4-15.2,10.6
		c-8.1,4.3-15,7.9-27.8,5.9c-10.9-1.7-19.7-11.1-22.5-21.8c-1.1-4.9-1.7-10-1.7-15.1c-0.8-19.5-0.2-29.1-2.2-47.9l17.7-62.7
		l37.4-28.2c14.2-10.8,32.9-18.7,52.6-25.4c3.7-2.9,7.3-5.4,10.2-7.2c6.7,29.5,15.3,61.1,24.7,89.9c6.9,21.3,9.2,28.5,18.1,50.4h2.9
		c8.9-21.9,11.1-29.1,18.1-50.4C231.8,472.1,236.1,457.9,240.1,443.5z"/>
	<path class="st3" d="M458.6,612c4.3-33.5,11.7-91.2,17.1-117.7c2.3-11.3,7.5-30.4,15-41.8c11.7-17.7,30.8-26.6,53.3-37.5
		c3-2.7,6.3-5.1,9.8-7.2c6.2,26.4,17.3,54.9,26.1,80.5c6.5,19,10.1,27.1,17.6,45.5h2.7c7.5-18.4,11.1-26.5,17.6-45.5
		c8.8-25.7,19.8-54.1,26.1-80.5c2.6,1.5,5.1,3.3,7.5,5.2c5,1.5,8.9,2.6,8.9,2.6c10.4,3.7,20.3,8.8,29.4,15.1L717,450l28.7,63.1
		c2.1,11.6,4.7,22.1,8.8,41.2c1.3,4.9,2,10,2.2,15.1c0,11.1-6.1,22.5-16.3,26.9c-8,3.4-19.3,3.6-28.5,1.4c-6.3-1.5-16.8-4.8-24.4-10
		l-6-3c-0.1,12.4-0.1,24-0.2,27.3L458.6,612z"/>
	<path class="st0" d="M206.4,536.1c-8.9-21.9-11.1-29.1-18.1-50.4c-8.6-26.4-16.6-55.2-23-82.6c-0.5-2.8,0.3-5.6,2.1-7.7
		c2.9-3.3,6.5-8.2,9.5-11.5c1.3,1,26.8,21.1,28.7,22.5h4.5c1.9-1.4,27.5-21.5,28.7-22.5c2.9,3.3,6.6,8.1,9.5,11.5
		c1.8,2.1,2.6,5,2.1,7.7c-6.4,27.4-14.4,56.2-23,82.6c-6.9,21.3-9.2,28.5-18.1,50.4L206.4,536.1z"/>
	<path class="st4" d="M198.7,516.4c2,5.5,4.4,11.6,7.7,19.7h2.9c8.2-20.1,10.7-27.9,16.5-45.6c-2.8-24-6.5-52.5-6.5-53.3
		c0.1-1.5,0.3-3,0.7-4.5c0.2-0.7,0.3-1.3,0.5-2c0.7-3.3,0.9-5,1.7-8.6l0.1-0.2c-4.1-5.6-9.1-12.1-12.1-15.5h-4.5
		c-3,3.4-7.9,9.9-12,15.4l0.4,1.1c0.9,2.2,1.6,4.5,2.1,6.8c0.9,2.6,1.5,5.2,1.7,7.9c0,1.4-3.9,28.4-7.5,53.9
		C193.5,501.6,195.8,508.5,198.7,516.4z"/>
	<path class="st2" d="M187.6,535.3c-15.9-27.6-31.6-55.3-46.3-83.5c-1.2-1.8-2.2-3.7-3-5.7c-0.2-0.7-0.2-0.6,0.6-1.4
		c0.7-0.8,1.5-1.6,2.3-2.4c3.1-3.2,6.4-6.3,9.7-9.4c1.4-1.4,1.4-3.7-0.1-5.1c-0.2-0.2-0.4-0.4-0.7-0.5l-6.1-3.5l-3.1-1.8l-1.5-0.9
		c-0.8-0.6-1-0.6-0.5-0.2l0.5,1.8c0.5-1,1.2-2,1.9-2.9c0.7-1,1.5-2,2.4-2.9c2.2-2.5,4.6-4.8,7.2-7c4.6-4,9.5-7.7,14.6-11l-5.2-2.1
		c8.7,38.5,19.6,76.5,32.6,113.7c3.1,8.9,6.6,17.7,10.1,26.5c0.6,1.9,2.5,2.9,4.4,2.5c1.9-0.5,3-2.5,2.5-4.4
		c-13.8-34.7-25.3-70.2-34.5-106.4c-3-11.2-5.7-22.5-8.3-33.8c-0.5-1.9-2.5-3-4.4-2.5c-0.3,0.1-0.5,0.2-0.8,0.3
		c-8.1,5.1-15.6,11.1-22.2,17.9c-1.6,1.7-3,3.4-4.3,5.2c-1.5,1.7-2.6,3.8-3,6.1c-0.2,3.3,2.6,4.6,5,6l9.2,5.3l-0.7-5.6
		c-3.1,2.9-6.2,5.8-9.1,8.8c-2.7,2.7-6.4,5.7-5.6,9.9c0.5,2,1.3,3.8,2.4,5.5c1,1.9,2,3.8,3,5.8c1.9,3.7,3.8,7.3,5.8,10.9
		c8.1,15.1,16.4,30.1,24.8,45c4.8,8.4,9.5,16.7,14.4,25.1C183.8,542.8,189.9,539.3,187.6,535.3L187.6,535.3z"/>
	<path class="st2" d="M218.3,431.1c-6.7,0-13.3-0.1-20-0.1c-2,0-3.6,1.6-3.6,3.6c0,2,1.6,3.6,3.6,3.6c6.7,0,13.3,0.1,20,0.1
		c2,0,3.6-1.6,3.6-3.6S220.3,431.1,218.3,431.1z"/>
	<path class="st2" d="M218.8,421.3c-0.8,3.3-1.3,6.6-2,9.9c-0.6,2.2-1,4.4-0.9,6.7c0.3,3.6,0.9,7.2,1.3,10.7c1.7,14,3.5,28,5.1,42.1
		c0.1,1.9,1.6,3.5,3.6,3.6c2,0,3.5-1.6,3.6-3.6c-1.6-13.9-3.3-27.7-5.1-41.5c-0.5-3.7-1-7.3-1.3-11c-0.1-1.7,0.1-3.5,0.6-5.1
		c0.8-3.3,1.2-6.6,2-9.9C226.7,418.7,219.8,416.8,218.8,421.3z"/>
	<path class="st2" d="M193.9,491.3c2-13.9,4-27.9,5.9-41.8c0.5-3.6,1.2-7.3,1.4-11c0.1-2.2-0.2-4.4-0.8-6.5c-0.8-3.7-2-7.3-3.4-10.8
		c-1-1.7-3.2-2.3-4.9-1.3c-1.7,1-2.2,3.2-1.3,4.9c0.6,1.7,1.2,3.5,1.5,5.3c0.5,1.7,1,3.3,1.4,5c0.3,1.3,0.4,2.7,0.2,4
		c-0.4,3.5-0.9,6.6-1.4,10.2c-1.9,13.4-3.8,26.8-5.7,40.1c-0.5,1.9,0.6,3.8,2.5,4.4C191.4,494.3,193.4,493.2,193.9,491.3
		L193.9,491.3z"/>
	<path class="st2" d="M115.3,480.1c0.4,17.1,0.6,34.2,0.9,51.3c0.3,19.5,0.6,39.1,0.8,58.6c0.1,7.1,0.2,14.2,0.2,21.4
		c0,4.6,7.1,4.6,7.1,0c-0.1-15.1-0.3-30.1-0.5-45.2c-0.3-20.1-0.6-40.2-0.9-60.3c-0.1-8.6-0.3-17.2-0.5-25.8
		C122.3,475.5,115.2,475.5,115.3,480.1L115.3,480.1z"/>
	<path class="st2" d="M299.4,611.4c0.1-15.2,0.2-30.4,0.4-45.6c0.2-20,0.4-39.9,0.7-59.9c0.1-8.6,0.2-17.2,0.4-25.8
		c0.1-4.6-7-4.6-7.1,0c-0.4,17-0.5,34-0.7,51c-0.2,19.5-0.4,38.9-0.6,58.4c-0.1,7.3-0.1,14.6-0.2,21.9
		C292.3,616,299.4,616,299.4,611.4L299.4,611.4z"/>
	<path class="st2" d="M42.3,519.4c1,9.9,1.5,19.9,1.7,29.9c0.1,5.4,0.2,10.9,0.5,16.3c0,6,0.6,11.9,1.9,17.7
		c2.4,9.2,8.6,17.1,17,21.6c8.9,4.1,19.1,4.6,28.3,1.2c9.7-3.5,18.1-9.6,26.2-16c1.4-1.4,1.4-3.6,0-5c-1.4-1.3-3.6-1.3-5,0
		c-12.1,9.6-28.3,20.7-44.4,14.3c-7.6-3.3-13.2-10-15.2-18c-1.2-5.3-1.7-10.8-1.7-16.3c-0.2-4.8-0.3-9.7-0.4-14.5
		c-0.2-10.4-0.6-20.8-1.7-31.2c-0.1-1.9-1.6-3.5-3.6-3.6C43.9,515.9,42.3,517.5,42.3,519.4L42.3,519.4z"/>
	<path class="st2" d="M691.4,427.6c-9.4-6.4-19.5-11.6-30.2-15.5c-1.9-0.5-3.8,0.6-4.4,2.5c-0.5,1.9,0.6,3.8,2.5,4.4
		c10.1,3.7,19.7,8.7,28.5,14.7c1.7,1,3.9,0.4,4.9-1.3C693.6,430.8,693.1,428.7,691.4,427.6C691.4,427.6,691.4,427.6,691.4,427.6
		L691.4,427.6z"/>
	<path class="st2" d="M682.6,487.8c0,16.7-2.2,33.4-3,50.1c-0.8,16.9-1.6,33.7-1.7,50.6c-0.1,7.8-0.1,15.6-0.1,23.4
		c0,4.6,7.1,4.6,7.1,0c0.2-31.9,0.6-63.8,3.3-95.7c0.8-9.5,1.5-18.9,1.5-28.5C689.7,483.3,682.6,483.2,682.6,487.8L682.6,487.8z"/>
	<path class="st2" d="M509.6,487.8c0,16.7,2.2,33.4,3,50.1c0.8,16.9,1.6,33.7,1.7,50.6c0.1,7.8,0.1,15.6,0.1,23.4
		c0,4.6,7.1,4.6,7.1,0c-0.2-31.9-0.6-63.8-3.3-95.7c-0.8-9.5-1.5-18.9-1.5-28.5C516.7,483.3,509.6,483.2,509.6,487.8L509.6,487.8z"
		/>
	<path class="st2" d="M742.3,514c1.4,7.5,3,14.9,4.6,22.3c1,4.7,2.1,9.3,3.1,14c1.4,5.4,2.5,10.9,3,16.5c0.8,8.8-2.6,17.4-9.3,23.3
		c-7,5.8-17.6,6.1-26.2,5c-10.1-1.3-19.8-4.9-28.4-10.5c-3.8-2.5-7.4,3.6-3.6,6.1c8.3,5.3,17.6,9,27.4,10.8
		c10.2,1.9,22.2,1.9,31.4-3.3c8.4-5.1,14-13.7,15.3-23.4c0.7-5.8,0.4-11.6-1-17.3c-1.1-5.8-2.5-11.5-3.8-17.2
		c-2.1-9.4-4.2-18.7-6-28.2C748.3,507.7,741.5,509.6,742.3,514L742.3,514z"/>
	<path class="st2" d="M462.2,612c3.9-30.3,7.7-60.7,12.4-90.9c1.7-12.7,4.2-25.3,7.3-37.8c2-7.8,4.7-15.4,8.2-22.6
		c3.4-6.8,8-12.8,13.6-17.9c13.9-12.6,32.1-19.8,48.7-28c4.1-2,0.5-8.1-3.6-6.1c-15.5,7.6-31.8,14.5-45.6,25.2
		c-6.3,4.8-11.7,10.6-16,17.2c-4.2,7.1-7.6,14.7-9.9,22.6c-3.9,13-6.8,26.2-8.7,39.7c-2.5,15.7-4.7,31.4-6.9,47.2
		c-2.3,17.1-4.5,34.2-6.7,51.4c0,2,1.6,3.5,3.6,3.6C460.6,615.5,462.1,613.9,462.2,612L462.2,612z"/>
	<path class="st0" d="M770.5,463.4c0.3,1,0.5,1.9,0.7,2.9c0.6,4.8-0.5,9.6-3,13.7c-3.5,6.8-6.4,13.9-8.4,21.3
		c-1.6,5.5-3.6,14-4.2,17.4c-0.4,2.9-1.4,5.6-2.9,8.1c-2,2.9-4.8,3.9-7.7,5.5c-1.5,0.9-9.1,0.3-10.8,0.1c-6.1-1.1-11.8-3.4-16.9-6.9
		c-6.4-4.5-8.1-13.4-3.7-32.1c0.9-3.4-0.4-7.5-2.6-11.2l-4.6,2.3c-2-3.4-3.7-6.9-5.3-10.4c-1.4-3.2-0.8-6.9,1.6-9.5
		c1-0.9,2.1-1.7,3.3-2.3l2.1-4.2c-2.8,0.5-5.7-0.2-8-2c-1.6-1.2-2.5-3.2-2.3-5.2c0.2-3.1,1.4-6.1,3.3-8.6c2.3-3.2,5.2-5.9,8.6-8
		c3.5-2,7.8-2.1,11.3-0.1c1.6,1,2.8,2.5,4.5,3.4l6.5,0.6c1.3-2.9,4-4.9,7.2-5.5c3.2-0.3,6.3,0.7,8.8,2.7c1.5,1.2,2.9,2.5,4.3,3.9
		c5.7,5.9,10.5,12,16,19C769.3,459.9,770,461.6,770.5,463.4z"/>
	<path class="st2" d="M735.4,439.2c0.9-2.4,4.2-3.2,6.4-2.8c3.8,0.7,6.8,4.1,9.3,6.8c2.9,3.1,5.6,6.2,8.2,9.5c2.3,2.8,5.4,5.7,6.8,9
		c1.3,2.7,1.8,5.7,1.6,8.7c-0.3,3.7-2.1,6.6-3.8,9.9c-3,6-5.4,12.2-7.3,18.6c-1.8,6.1-3.4,12.4-4.5,18.7c-0.6,3.4-1.5,7.1-4.5,9.2
		c-0.8,0.5-1.5,0.9-2.3,1.3c-0.4,0.2-0.8,0.4-1.2,0.6c-0.2,0.1-1.4,0.7-0.7,0.4c0.7-0.3-0.8,0-0.2,0c-0.8,0-1.5,0.1-2.3,0.1
		c-5.2,0.2-10.5-0.9-15.2-3c-1.7-0.8-3.3-1.6-4.9-2.6c-0.6-0.4-1.2-0.8-1.8-1.2c0.1,0.1-0.4-0.3-0.7-0.7c-1.1-1.1-2-2.4-2.5-3.9
		c-2-6.3-0.8-13.4,0.5-19.8c0.9-4.4,1.7-8.2,0.2-12.5c-1.5-4.2-3.9-8-7-11.2c-3.1-3.4-8.1,1.7-5,5c2.8,2.8,4.8,6.4,5.8,10.3
		c0.2,1.8,0,3.6-0.6,5.4c-0.5,2.3-0.9,4.7-1.3,7c-0.9,6.3-1.4,13.2,1.1,19.2c2.5,6,8.2,9.2,13.9,11.7c5.8,2.5,12.2,3.7,18.5,3.4
		c7.9-0.2,14.4-6.5,16.5-13.8c0.9-3.3,1.4-6.7,2.2-10.1c0.9-3.7,1.8-7.4,2.9-11.1c1.9-6.8,4.5-13.3,7.8-19.5
		c4.4-7.4,4.7-16.5,0.8-24.1c-1.2-2-2.6-3.9-4.2-5.6c-1.8-2.2-3.5-4.4-5.3-6.6c-3.2-4-6.7-7.8-10.5-11.3c-3.9-3.4-8.5-5.8-13.9-4.9
		c-4.4,0.8-8,3.8-9.6,8C727,441.6,733.8,443.5,735.4,439.2L735.4,439.2z"/>
	<path class="st2" d="M749.5,455.5c-3.5-3.9-7.2-7.8-10.8-11.6c-1.2-1.3-2.5-2.6-3.9-3.7c-3.5-2.6-8.3-2.6-11.9-0.2
		c-3.9,2.7-5.9,7.5-5,12.2c0.5,1.9,2.5,3,4.4,2.5c1.9-0.6,3-2.5,2.5-4.4c-0.1-0.4-0.1-0.4,0-0.1c0-0.2,0-0.5,0-0.7
		c0-0.4,0-0.5,0-0.1c0-0.2,0.1-0.5,0.2-0.7c0.1-0.7,0.4-1.3,0.9-1.8c-0.2,0.2-0.1,0.1,0.2-0.2c0.2-0.2,0.4-0.4,0.5-0.5
		c0.6-0.6-0.2,0,0.5-0.4c0.5-0.4,1.2-0.6,1.8-0.5c0.7,0-0.1-0.1,0.6,0.1c0.4,0.1,0.7,0.2,1,0.4c0.4,0.2,1,0.7,0.4,0.2
		c0.1,0.1,0.1,0.1,0.2,0.2c0.6,0.6,1.2,1.2,1.8,1.8c4,4.1,7.9,8.3,11.7,12.5c1.4,1.4,3.6,1.4,5,0
		C750.9,459.2,750.9,456.9,749.5,455.5L749.5,455.5z"/>
	<path class="st2" d="M735,460.1c-3.2-3.2-6.7-6.2-10.4-8.8c-1.6-1.3-3.3-2.4-5.3-3.1c-5.4-1.3-10.9,2.1-12.2,7.5
		c-0.4,1.6-0.4,3.3,0,4.9c0.9,2.3,2.2,4.4,3.9,6.2c0.7,0.9,1.5,1.8,2.4,2.7c2.4,2.4,5,4.8,7.5,7.1c1.4,1.4,3.6,1.4,5,0
		c1.4-1.4,1.4-3.6,0-5c-1.9-1.8-3.8-3.5-5.6-5.3c-0.9-0.9-1.9-1.8-2.8-2.8c-0.7-0.8-1.6-1.8-2.1-2.5c-0.5-0.6-0.9-1.3-1.3-2
		c-0.3-0.5,0.2,0.4-0.1-0.1c-0.1-0.1-0.1-0.3-0.1-0.4c0.2,0.5,0,0.5,0,0.1c0-0.2,0-0.5,0-0.7c0-0.5-0.2,0.5,0,0
		c0-0.1,0.1-0.3,0.1-0.5c0-0.2,0.5-1.3,0.2-0.6c0.1-0.3,0.4-0.6,0.5-0.9c0.1-0.3-0.1,0.1-0.1,0.2c0,0,0.6-0.6,0.3-0.3
		s0.2-0.1,0.3-0.2c0.1-0.1,0.3-0.2,0.4-0.2c0.6-0.3,0.2-0.1,0,0c0.2-0.1,0.4-0.1,0.6-0.2c0.1,0,0.3-0.1,0.5-0.1c0.5-0.2-0.5,0,0,0
		c0.1,0,0.3,0,0.4,0c0.8,0-0.3-0.2,0.1,0c0.2,0.1,0.4,0.1,0.6,0.1c0.4,0-0.1,0-0.2-0.1c0.3,0.2,0.6,0.4,1,0.6c0.7,0.5,1.5,1,2.2,1.5
		c0.4,0.3,0.8,0.6,1.2,0.9c0.2,0.2,0.4,0.3,0.6,0.5c0.1,0,0.5,0.4,0.2,0.1c0.9,0.7,1.7,1.4,2.5,2.2c1.6,1.4,3.2,2.8,4.8,4.3
		c1.4,1.4,3.7,1.3,5-0.1C736.3,463.7,736.3,461.5,735,460.1L735,460.1z"/>
	<path class="st2" d="M713.8,459.9c-2.2-1.3-4.7-1.8-7.3-1.4c-2.1,0.5-4.1,1.5-5.7,3c-2.9,2.5-4.3,6.3-3.9,10.1
		c0.5,2.8,1.4,5.5,2.9,8c1,2.4,2.3,4.6,3.6,6.8c1,1.7,3.2,2.3,4.9,1.3c1.7-1,2.3-3.2,1.3-4.9c-1.1-1.8-2.1-3.6-3-5.6
		c-0.5-1-1-2-1.5-3c-0.2-0.4-0.3-0.7-0.5-1.1l-0.3-0.5c-0.1-0.2,0-0.4,0.1,0.1c0-0.3-0.2-0.6-0.2-0.8c0-0.2-0.1-0.4-0.1-0.6
		c0,0.4,0.1,0.5,0,0.2c0-0.4,0-0.7,0-1.1c0-0.1,0.1-1.1,0-0.3c0-0.3,0.1-0.6,0.2-0.9c0-0.2,0.5-1.3,0.1-0.6c0.1-0.3,0.3-0.5,0.4-0.8
		c0.1-0.2,0.6-0.7,0.1-0.2c0.2-0.2,0.5-0.5,0.7-0.7c0.1-0.1,0.9-0.8,0.4-0.4c0.3-0.2,0.5-0.4,0.8-0.6c0.3-0.2,0.8-0.4,0.2-0.2
		c0.2-0.1,1.5-0.3,0.8-0.3c0.3,0,0.7,0,1,0c-0.7-0.1,0.4,0.2,0.4,0.2c0.4,0.1,0.5,0.2,0.2,0.1c0.2,0.1,0.5,0.2,0.7,0.4
		c1.7,1,3.9,0.4,4.9-1.3C716,463,715.5,460.9,713.8,459.9L713.8,459.9z"/>
	<path class="st2" d="M727.2,434.6c-1.6-0.9-2.9-2.5-4.6-3.5c-2-1.2-4.2-1.8-6.5-1.8c-4.5,0.1-8.9,1.8-12.2,4.9
		c-3.3,2.6-5.9,6-7.8,9.7c-1.9,4.3-2.8,9.4,0.3,13.3c3.1,3.7,8,5.3,12.7,4.3c1.9-0.5,3-2.5,2.5-4.4c-0.6-1.9-2.5-3-4.4-2.5
		c-1.4,0.2-2.8-0.1-4-0.8c-0.3-0.2-0.5-0.3-0.8-0.5c0.8,0.6-0.2-0.2-0.4-0.4c-0.3-0.3-0.6-0.8-0.6-1.3c0-1.6,0.3-3.2,1-4.6
		c0.8-1.7,1.9-3.3,3.3-4.7c2.5-2.8,5.4-5.5,9.2-6c1.4-0.2,2.8,0.1,4,0.7c1.7,0.9,3.1,2.6,4.8,3.7
		C727.6,443.1,731.2,436.9,727.2,434.6L727.2,434.6z"/>
	<path class="st0" d="M74.5,443.2c1.6-0.9,2.9-2.4,4.4-3.4c3.5-1.9,7.8-1.9,11.2,0.1c3.4,2,6.3,4.7,8.6,7.9c1.9,2.5,3,5.4,3.3,8.5
		c0.1,2-0.7,4-2.3,5.2c-2.2,1.8-5.1,2.5-7.9,2l2,4.1c1.2,0.6,2.3,1.4,3.3,2.3c2.3,2.6,2.9,6.3,1.6,9.5c-1.6,3.6-3.4,7-5.3,10.4
		l-4.7-2c-2.1,3.6-3.3,7.6-2.4,10.9c4.4,18.6,2.7,27.5-3.7,32c-5,3.5-10.8,5.8-16.8,6.9c-1.7,0.2-9.3,0.7-10.8-0.1
		c-2.9-1.7-5.7-2.6-7.6-5.5c-1.5-2.4-2.5-5.2-2.9-8c-0.6-3.4-2.6-11.8-4.1-17.4c-2.1-7.3-4.9-14.5-8.4-21.2c-2.5-4.1-3.6-8.9-3-13.7
		c0.5-2.8,1.5-5.5,2.9-8c5.5-7,10.3-13.1,16-18.9c1.4-1.4,2.8-2.6,4.3-3.8c2.5-2,5.6-2.9,8.7-2.6c3.1,0.5,5.8,2.6,7.1,5.5
		L74.5,443.2z"/>
	<path class="st2" d="M71.4,442.9c-3.1-8.5-13.9-10.2-20.8-5.2c-7.5,5.5-13.2,13.4-18.9,20.6c-1.3,1.5-2.5,3-3.5,4.7
		c-0.9,1.7-1.5,3.4-2,5.2c-1.2,4-1.2,8.2-0.1,12.3c1,3.9,3.3,7.2,5,10.8c1.6,3.4,2.9,6.9,4.1,10.4c2.3,6.9,4.2,14,5.6,21.2
		c0.8,3.8,1.4,7.7,3.7,11c2.5,3.4,6,5.9,10,7.2c2.7,0.6,5.5,0.8,8.3,0.4c2.8-0.1,5.5-0.5,8.2-1.2c6.4-1.9,13.9-5,17.9-10.7
		c3.8-5.4,3.9-12.7,3.2-19c-0.3-2.4-0.6-4.8-1.1-7.2c-0.6-2.3-1.1-4.6-1.3-6.9c-0.1-4.3,3.1-8.8,5.9-11.8c3.1-3.3-1.9-8.4-5-5
		c-5.1,5.5-9.2,12.9-7.5,20.5c1.4,6.3,3,13.2,2,19.7c-0.2,1.9-0.9,3.8-1.9,5.4c-1,1.5-2.4,2.7-3.9,3.6c-4.8,3.2-10.4,5.1-16.1,5.5
		c-1.3,0.1-2.7,0.1-4,0.1c-0.9,0.1-1.8,0-2.7-0.2c1,0.3,0.1,0-0.2-0.2c-0.4-0.2-0.8-0.4-1.2-0.7c-0.8-0.4-1.6-0.8-2.3-1.3
		c-1.5-1-2.7-2.4-3.4-4c-1-2.9-1.7-5.9-2.2-9c-0.8-3.5-1.6-7-2.5-10.5c-1.7-6.4-3.9-12.7-6.6-18.8c-2.6-5.9-7.1-11.7-5.5-18.5
		c0.9-3.4,2.5-6.5,4.9-9.1c3-3.8,6.1-7.6,9.4-11.3c2.7-3,5.8-7.1,9.7-8.6c2.5-1,6.8-0.8,8,2.3C66.1,449.1,73,447.2,71.4,442.9
		L71.4,442.9z"/>
	<path class="st2" d="M55.6,466.1c3.8-4.2,7.7-8.4,11.6-12.5c0.6-0.6,1.2-1.2,1.8-1.8c0.1-0.1,0.1-0.1,0.2-0.2c-0.5,0.5,0,0,0.4-0.2
		c0.3-0.2,0.6-0.3,1-0.4l0.4-0.1c-0.3,0-0.3,0.1,0.2,0c0.2,0,0.5,0,0.7,0c-0.3,0-0.3,0,0.2,0.1c0.4,0.1,0.5,0.2,0.2,0
		c0.2,0.1,0.5,0.2,0.7,0.4c0.5,0.2,0.1,0,0.5,0.4c0.2,0.2,0.4,0.4,0.5,0.5c0.3,0.3,0.3,0.4,0.1,0.2c0.4,0.5,0.7,1.2,0.9,1.8
		c0.1,0.2,0.1,0.5,0.1,0.7c0-0.4-0.1-0.3,0,0.1c0,0.2,0,0.5,0,0.7c0.1-0.4,0.1-0.4,0,0c-0.5,1.9,0.6,3.8,2.5,4.4
		c1.9,0.5,3.8-0.6,4.4-2.5c0.8-4-0.5-8.2-3.5-11c-3.3-3.1-8.1-3.8-12.1-1.7c-1.7,1-3.2,2.3-4.5,3.8c-1.9,1.9-3.7,3.9-5.5,5.8
		c-2,2.1-3.9,4.2-5.9,6.4c-1.3,1.4-1.3,3.6,0,5C52,467.4,54.2,467.4,55.6,466.1L55.6,466.1z"/>
	<path class="st2" d="M70,470.7c1.3-1.3,2.6-2.4,4-3.6c0.8-0.7,1.5-1.3,2.3-2c0.3-0.3,0.7-0.6,1-0.8c-0.1,0.1-0.4,0.3,0.2-0.1
		c0.2-0.2,0.4-0.3,0.6-0.5c0.7-0.5,1.5-1.1,2.2-1.6c0.7-0.4,1.4-0.9,2-1.4c0.2-0.2-0.1,0-0.2,0.1c0.2-0.1,0.4-0.1,0.5-0.2
		c0.3-0.1,0.5,0.1-0.1,0c0.1,0,0.3,0,0.4,0c0.1,0,0.7,0.1,0.3,0c-0.4-0.1,0.1,0,0.1,0c0.2,0.1,0.4,0.1,0.6,0.2
		c0.6,0.2-0.1-0.1,0.2,0.1c0.3,0.2,0.6,0.4,0.9,0.6c-0.6-0.5,0.5,0.5,0.1,0.1c-0.3-0.3,0,0.1,0.1,0.2c0.1,0.1,0.1,0.3,0.2,0.4
		c0.3,0.6,0.1,0.1,0,0c0.1,0.2,0.2,0.5,0.2,0.7c0.1,0.2,0.1,0.4,0.1,0.6c0.1,0.4,0-0.1,0-0.2c0,0.4,0,0.8,0,1.2c0-0.1,0.2-0.6,0-0.3
		c0,0.1-0.2,0.7-0.1,0.3c0.1-0.3-0.1,0.2-0.1,0.2c-0.2,0.3-0.3,0.5-0.5,0.8c-0.4,0.6-0.9,1.2-1.4,1.8c-0.3,0.4-0.6,0.8-0.9,1.1
		c-0.8,0.9-1.6,1.7-2.5,2.5c-2.1,2.1-4.3,4.1-6.4,6.1c-1.4,1.4-1.4,3.6,0,5c1.4,1.3,3.6,1.3,5,0c2.2-2.1,4.4-4.2,6.6-6.3
		c2.5-2.3,4.6-4.9,6.3-7.8c2.4-5,0.4-11-4.6-13.4c-1.5-0.7-3.1-1.1-4.8-1c-2.2,0.2-4.2,1.1-5.9,2.4c-4.2,2.9-8.1,6.2-11.7,9.7
		c-1.4,1.4-1.3,3.7,0.1,5C66.5,472,68.6,472,70,470.7L70,470.7z"/>
	<path class="st2" d="M89.7,471.5c0.2-0.1,0.5-0.3,0.7-0.4c-0.3,0.1-0.2,0.1,0.2-0.1c0.1,0,1.1-0.2,0.4-0.2c0.3,0,0.7,0,1,0
		c-0.7-0.1,0.5,0.2,0.6,0.2c0.3,0.1,0.2,0.1-0.2-0.1c0.2,0.1,0.4,0.2,0.5,0.3c0.3,0.2,0.6,0.4,0.8,0.6c-0.5-0.4,0.2,0.2,0.3,0.3
		c0.3,0.3,0.6,0.5,0.8,0.8c-0.4-0.4,0,0,0.1,0.2c0.2,0.3,0.3,0.5,0.4,0.8c-0.3-0.7,0,0.3,0.1,0.4c0.1,0.3,0.2,0.7,0.2,1
		c-0.1-0.6,0,0,0,0.3c0,0.3,0,0.6,0,0.9c0,0.4,0,0.4,0,0c0,0.2-0.1,0.4-0.1,0.6c-0.1,0.3-0.2,0.6-0.2,0.8c0.1-0.4,0.2-0.4,0.1-0.1
		c-0.1,0.2-0.1,0.3-0.2,0.5c-0.2,0.4-0.4,0.8-0.5,1.2c-0.5,1-1,2-1.5,3c-0.9,1.9-1.9,3.8-3,5.5c-1,1.7-0.4,3.9,1.3,4.9
		c1.7,0.9,3.8,0.4,4.9-1.3c1.4-2.2,2.6-4.4,3.6-6.8c1.4-2.5,2.4-5.1,2.9-7.9c0.4-3.8-1.1-7.5-3.9-10c-1.6-1.5-3.5-2.5-5.6-3
		c-2.5-0.4-5.1,0.1-7.2,1.4c-1.7,1-2.2,3.2-1.3,4.9C85.9,471.9,88,472.4,89.7,471.5L89.7,471.5z"/>
	<path class="st2" d="M76.3,446.3c1.8-1,3.2-2.7,4.8-3.6c1.2-0.6,2.6-0.8,4-0.7c3.8,0.5,6.7,3.2,9.1,6c1.3,1.3,2.3,2.8,3.2,4.4
		c0.7,1.5,1.1,3.2,1.1,4.8c0,0.1-0.4,1-0.2,0.6c0,0-0.6,0.9-0.3,0.5c-0.1,0.2-1.3,1.1-0.5,0.5c-0.2,0.2-0.5,0.3-0.8,0.5
		c-0.6,0.4-1.2,0.6-1.9,0.7c-0.7,0.2-1.4,0.2-2.2,0.1c-1.9-0.5-3.8,0.6-4.4,2.5c-0.5,1.9,0.6,3.8,2.5,4.4c4.2,0.8,8.5-0.3,11.7-3.1
		c3.6-3.3,3.6-8.2,2.1-12.5c-1.6-4.1-4.1-7.7-7.4-10.6c-3.2-3.2-7.3-5.3-11.8-5.9c-2.5-0.2-5,0.2-7.3,1.3c-2.1,1-3.6,2.9-5.4,3.9
		C68.8,442.5,72.4,448.7,76.3,446.3L76.3,446.3z"/>
	<path class="st2" d="M603.6,534.7c6-14.7,12-29.3,17.2-44.2c6-17.4,12.4-34.7,18.1-52.2c3.1-9.7,6-19.6,8.4-29.5l-5.2,2.1
		c4.7,2.8,9,6.2,12.9,10.1c3.7,3.7,7.8,7.8,9.9,12.7l-0.5-1.8l0,0.6l0.5-1.8c0.4-0.8-0.1-0.1-0.6,0.2c-0.4,0.3-0.8,0.5-1.2,0.8
		c-1.1,0.7-2.2,1.4-3.2,2.1c-2,1.3-4,2.7-6,4c-1.7,1-2.2,3.3-1.2,5c0.3,0.5,0.7,0.9,1.2,1.2c2.8,2.1,5.8,3.9,8.5,6.1
		c0.7,0.6,3.1,2.2,3.3,3c-0.2-0.7-0.5,0.4-0.6,0.7c-0.5,0.9-1,1.8-1.4,2.7c-3.4,6.3-7,12.6-10.6,18.8c-7.5,13-15.4,25.8-23.3,38.6
		c-4.4,7-8.7,14-13.1,21c-2.4,3.9,3.7,7.5,6.1,3.6c8.6-13.6,17.1-27.3,25.4-41c4.2-7,8.4-14,12.4-21c3.8-6.6,7.8-13.2,11.2-20
		c2.3-4.6-0.2-7.9-3.8-10.8c-3.3-2.8-7-5.1-10.6-7.7v6.1c2.4-1.5,4.7-3.1,7-4.7c2.1-1.1,4.1-2.4,5.9-3.9c3.6-3.8-1.6-9.5-4-12.5
		c-5.7-7.3-12.6-13.4-20.6-18.2c-1.7-1-3.9-0.4-4.9,1.3c-0.1,0.2-0.3,0.5-0.3,0.8c-4.5,17.8-9.9,35.4-16.3,52.7
		c-5.7,16.3-11.1,32.7-17.4,48.8c-3.2,8.2-6.6,16.4-10,24.6c-0.5,1.9,0.6,3.8,2.5,4.4C601.1,537.6,603,536.5,603.6,534.7
		L603.6,534.7z"/>
	<path class="st2" d="M600.9,532.8c-6-14.7-12-29.3-17.2-44.2c-6-17.4-12.4-34.7-18.1-52.2c-3.1-9.7-6-19.6-8.4-29.5
		c-0.5-1.9-2.5-3-4.4-2.5c-0.3,0.1-0.5,0.2-0.8,0.3c-7.9,4.7-14.9,10.9-20.6,18.2c-2.3,2.9-7.3,8.4-4.3,12.2c1.5,1.8,4.2,3,6.1,4.3
		c2.3,1.5,4.6,3.1,7,4.7v-6.1c-3.1,2.3-6.4,4.4-9.4,6.8c-2.8,2.2-6.2,4.8-5.9,8.7c0.3,1.8,1,3.5,2,5c1,1.8,1.9,3.6,2.9,5.3
		c1.8,3.3,3.7,6.6,5.6,9.9c8,14.1,16.5,27.9,25,41.7c4.8,7.7,9.6,15.4,14.4,23.1c2.4,3.9,8.6,0.3,6.1-3.6
		c-15.8-25-31.5-50.2-45.7-76.1c-0.9-1.7-1.8-3.3-2.7-5c-0.2-0.3-0.4-0.6-0.5-1c0,0.1-0.4,0.8,0.2,0.1c0.6-0.7,1.2-1.3,1.9-1.8
		c3-2.6,6.5-4.7,9.7-7.1c1.7-1,2.2-3.3,1.2-5c-0.3-0.5-0.7-0.9-1.2-1.2c-2-1.3-4-2.7-6-4c-1-0.6-1.9-1.3-2.9-1.9
		c-0.4-0.3-0.8-0.5-1.3-0.8c-0.3-0.2-0.6-0.4-0.9-0.6c-0.4-0.3-0.4-0.2,0,0.2l0.5,1.8l0-0.6l-0.5,1.8c2.1-4.9,6.2-9.1,9.9-12.7
		c3.9-3.9,8.2-7.3,12.9-10.1l-5.2-2.1c4.5,17.8,9.9,35.4,16.3,52.7c5.7,16.3,11.1,32.7,17.4,48.8c3.2,8.2,6.6,16.4,10,24.6
		c0.6,1.9,2.5,2.9,4.4,2.5C600.3,536.6,601.4,534.7,600.9,532.8L600.9,532.8z"/>
	<path class="st2" d="M174.4,381.5c-2.4,2.7-4.6,5.5-6.8,8.3c-2.2,2.7-4.6,5.1-5.5,8.6c-1.3,4.8,0.8,8,3.2,11.8
		c2.9,4.4,5.9,8.7,9.2,12.9c3,4.2,6.7,7.8,10.8,10.8c1.7,0.9,3.8,0.4,4.9-1.3c5.9-7.9,11.5-16.1,18-23.5c1.4-1.4,1.3-3.7-0.1-5.1
		c-0.2-0.2-0.4-0.3-0.6-0.5c-0.2-0.2-0.4-0.3-0.6-0.5c-0.2-0.2-1.4-1.1-0.6-0.5c-1.1-0.8-2.2-1.7-3.3-2.6c-3.2-2.5-6.4-5-9.5-7.5
		c-4.6-3.7-9.3-7.3-13.9-11C178,380.1,175.8,380.1,174.4,381.5c-1.4,1.4-1.4,3.6,0,5c4.7,3.8,9.5,7.5,14.3,11.3
		c5,3.9,10,8.1,15.1,11.8l-0.7-5.6c-6.9,7.9-12.8,16.6-19.1,25l4.9-1.3c-3.4-2.6-6.4-5.6-8.9-9.1c-2.8-3.5-5.4-7.3-7.9-11
		c-0.9-1.4-1.8-2.7-2.6-4.1c-0.8-1.3-0.9-1.2-0.7-2.6c0.4-2.6,2.7-4.7,4.3-6.6c2.1-2.6,4.2-5.2,6.4-7.7
		C182.4,383.1,177.4,378,174.4,381.5z"/>
	<path class="st2" d="M234.3,538.9c16.9-29.3,33.8-58.7,49.1-88.9c1.3-2,1.7-4.5,1-6.8c-1-2-2.4-3.9-4.2-5.3
		c-3.3-3.4-6.8-6.7-10.3-10l-0.7,5.6l8.8-5c2.6-1.5,5.6-2.8,5.4-6.3c-0.4-2.2-1.4-4.2-2.8-5.9c-1.4-1.9-2.9-3.7-4.5-5.5
		c-6.7-6.9-14.1-12.9-22.2-17.9c-1.7-1-3.9-0.4-4.9,1.3c-0.1,0.3-0.3,0.5-0.3,0.8c-8.7,38.5-19.6,76.5-32.6,113.8
		c-3.1,8.9-6.6,17.7-10.1,26.5c-0.5,1.9,0.6,3.8,2.5,4.4c1.9,0.5,3.8-0.6,4.4-2.5c13.8-34.7,25.3-70.2,34.5-106.4
		c3-11.2,5.7-22.5,8.3-33.8l-5.2,2.1c5.1,3.3,10,7,14.6,11c2.5,2.1,4.8,4.4,7,6.8c0.9,1,1.8,2,2.6,3.1c0.7,0.9,1.4,1.9,1.9,2.9
		l0.5-1.8c0.5-0.4,0.3-0.4-0.5,0.2l-1.5,0.9l-3.1,1.8l-6.1,3.5c-1.7,1-2.2,3.2-1.2,4.9c0.1,0.2,0.3,0.5,0.5,0.7
		c2.9,2.7,5.8,5.4,8.6,8.2c1.2,1.3,2.5,2.5,3.7,3.8c1,1.2,0.5,0.2,0.3,1.1c-0.4,1-0.9,2-1.5,2.9c-3.6,7-7.2,13.9-10.9,20.7
		c-7.7,14.2-15.5,28.3-23.5,42.4c-4.4,7.8-8.9,15.5-13.3,23.3C225.8,539.3,232,542.9,234.3,538.9L234.3,538.9z"/>
	<path class="st2" d="M236.3,386.5c2.2,2.5,4.3,5.1,6.4,7.7c1.6,2,3.9,4,4.3,6.6c0.2,1.3,0,1.3-0.7,2.6c-0.8,1.4-1.7,2.8-2.6,4.1
		c-2.5,3.8-5.1,7.5-7.9,11c-2.5,3.4-5.5,6.5-8.9,9.1l4.9,1.3c-6.3-8.4-12.2-17.1-19.1-25l-0.7,5.6c5.2-3.7,10.1-7.9,15.1-11.8
		c4.8-3.7,9.6-7.5,14.3-11.3c1.4-1.4,1.4-3.6,0-5c-1.4-1.3-3.6-1.3-5,0c-4.6,3.7-9.3,7.3-13.9,11c-3.1,2.5-6.2,4.9-9.4,7.3
		c-1.1,0.9-2.3,1.8-3.4,2.7c0.8-0.6-0.4,0.3-0.6,0.5s-0.4,0.3-0.6,0.5c-1.7,1-2.2,3.3-1.2,5c0.1,0.2,0.3,0.4,0.5,0.6
		c6.5,7.4,12.1,15.6,18,23.5c1,1.7,3.2,2.2,4.9,1.3c4.1-2.9,7.7-6.5,10.7-10.6c3.3-4.2,6.4-8.6,9.4-13.1c2.4-3.7,4.4-6.8,3.3-11.4
		c-0.8-3.5-3.2-5.9-5.4-8.6c-2.3-2.9-4.6-5.8-7.1-8.6C238.3,378,233.3,383.1,236.3,386.5z"/>
	<path class="st2" d="M366.4,611.4c-2.7-29.4-6.1-58.8-9.5-88.2c-1.9-16.1-3.3-32.3-7.1-48.1c-4.1-17.1-11.1-33.7-24.9-45.3
		c-16.6-13.9-37.9-21-57.7-28.7c-1.9-0.5-3.8,0.6-4.4,2.5c-0.5,1.9,0.6,3.8,2.5,4.4c17.4,6.8,35.7,13,51,24
		c6.6,4.7,12.1,10.6,16.3,17.5c4.2,7.3,7.3,15.2,9.4,23.3c4.1,15.3,5.6,31.2,7.5,46.9c1.9,16.3,3.8,32.6,5.5,48.9
		c1.5,14.2,3.1,28.5,4.4,42.7c0.1,1.9,1.6,3.5,3.6,3.6C364.8,614.9,366.4,613.4,366.4,611.4L366.4,611.4z"/>
	<path class="st2" d="M102.7,431.6c15.4-11.6,33.6-18.9,51.7-25c4.3-1.5,2.5-8.3-1.9-6.9c-18.7,6.3-37.6,13.8-53.4,25.7
		c-1.6,1-2.2,3.2-1.3,4.9C98.9,432,101,432.6,102.7,431.6z"/>
	<path class="st2" d="M196.2,351c4.1,2.1,8.6,3.2,13.2,3.1c4.8,0.2,9.4-1.2,13.3-3.9c1.4-1.4,1.4-3.6,0-5c-1.4-1.3-3.6-1.3-5,0
		c1.1-0.8,0.3-0.2,0,0c-0.3,0.2-0.5,0.3-0.8,0.5c-0.1,0.1-0.3,0.1-0.4,0.2c-0.4,0.2-0.3-0.1,0.2-0.1c-0.4,0.1-0.8,0.2-1.1,0.4
		c-1,0.3-2.1,0.6-3.1,0.7c0.5-0.1,0,0-0.3,0c-0.3,0-0.6,0.1-0.9,0.1c-0.7,0-1.5,0.1-2.2,0.1c-0.7,0-1.3,0-2-0.1
		c-0.3,0-0.6,0-0.9-0.1c-0.1,0-1.2-0.2-0.4,0c-1-0.2-2-0.4-2.9-0.6c-0.4-0.1-0.8-0.3-1.2-0.4c-0.9-0.3,0.6,0.3-0.3-0.1
		c-0.5-0.2-1-0.5-1.5-0.7c-1.7-1-3.9-0.4-4.9,1.3C193.9,347.8,194.5,350,196.2,351L196.2,351z"/>
	<path class="st2" d="M207.5,320c0.6,2.2,1.1,4.4,1.4,6.6l-0.1-0.9c0,0.3,0.1,0.6,0,0.9l0.1-0.9c0,0.1-0.1,0.3-0.1,0.4l0.4-0.8
		c0,0.1-0.1,0.2-0.1,0.3l0.6-0.7c-0.1,0.1-0.1,0.1-0.2,0.2l0.7-0.6c-0.2,0.1-0.3,0.2-0.5,0.3l0.8-0.4c-0.3,0.1-0.6,0.2-0.9,0.3
		l0.9-0.1c-0.3,0-0.6,0-0.8,0l0.9,0.1c-0.3,0-0.6-0.1-0.9-0.2c-0.5-0.1-1-0.2-1.4-0.1c-0.5,0-0.9,0.2-1.3,0.4
		c-1.7,1-2.3,3.2-1.3,4.9c0.5,0.8,1.2,1.4,2.1,1.6c0.7,0.1,1.4,0.3,2.2,0.3c1.1,0,2.2-0.3,3.2-0.8c1.3-0.6,2.2-1.7,2.6-3.1
		c0.2-1.1,0.2-2.2,0-3.3c-0.4-2.1-0.9-4.2-1.4-6.3c-0.3-0.9-0.8-1.7-1.6-2.1c-1.7-1-3.9-0.4-4.9,1.3
		C207.4,318.1,207.2,319.1,207.5,320L207.5,320z"/>
	<path class="st2" d="M172.5,301.2c-1.1,3.6-0.4,11.9,6.4,12.6c9-0.1,9.5-10,6.4-14.7C182.9,295.2,175.6,293.6,172.5,301.2z"/>
	<path class="st2" d="M244.8,301.2c1.1,3.6,0.4,11.9-6.4,12.6c-9-0.1-9.5-10-6.4-14.7C234.4,295.2,241.7,293.6,244.8,301.2z"/>
	<path class="st2" d="M144.4,292c-4.4-3.9-10.7-4.9-16.1-2.4c-3.8,1.9-6.5,5.4-7.5,9.6c-2.6,9.7-0.1,21.1,5.4,29.4
		c3.7,5.5,9.5,10.5,16.7,9.6c1.9-0.1,3.5-1.6,3.6-3.6c0-2-1.6-3.5-3.6-3.6c-9.7,1.3-15.2-12.9-15.9-20.7c-0.4-4.1-0.4-9.2,2.2-12.7
		c-0.4,0.5,0.3-0.4,0.4-0.4c0.1-0.1,0.5-0.5,0.6-0.6c0.7-0.6,1.6-0.9,2.5-1.1c2.4-0.6,4.9-0.1,6.7,1.5
		C142.8,300,147.8,295,144.4,292L144.4,292z"/>
	<path class="st2" d="M277.9,297c1.8-1.5,4.2-2.1,6.4-1.6c1,0.2,2,0.6,2.8,1.2c0.2,0.2,0.4,0.4,0.6,0.6c0.1,0.1,0.7,0.9,0.4,0.4
		c2.5,3.5,2.5,8.6,2.2,12.7c-0.7,7.8-6.2,21.9-15.9,20.7c-2,0-3.5,1.6-3.6,3.6c0,1.9,1.6,3.5,3.6,3.6c11.7,1.5,18.8-11.3,21.7-20.7
		c2.6-8.4,2.7-21.6-5.5-27c-5.6-3.4-12.8-2.8-17.7,1.6C269.5,295,274.5,300,277.9,297L277.9,297z"/>
	<path class="st2" d="M271.4,328.5c-1.1,4.7-2.6,9.3-4.5,13.8c0.4-0.9-0.3,0.5-0.4,0.9c-0.3,0.7-0.7,1.4-1,2.1
		c-0.8,1.6-1.7,3.1-2.6,4.6c-4.7,8-10.7,15.1-17.7,21.1c-3.9,3.3-8.5,5.7-13.4,7c-4.5,1-2.6,7.9,1.9,6.9
		c10.2-2.4,18.6-9.8,25.3-17.5c5.7-6.4,10.5-13.6,14.1-21.4c0.2-0.4,0.3-0.8,0.5-1.1c0-0.1,0.5-1.3,0.4-0.9c0.2-0.4,1-2.4,1.4-3.5
		c1.3-3.3,2.3-6.6,3-10.1C279.2,326,272.3,324.1,271.4,328.5L271.4,328.5z"/>
	<path class="st2" d="M138.9,330.2c3,13.4,9.3,25.9,18.3,36.3c8.6,10,19.7,17.9,33,19.9c1.9,0.5,3.8-0.6,4.4-2.5
		c0.5-1.9-0.6-3.8-2.5-4.4c-12.2-1.8-21.9-8.9-29.9-18.1c-8.1-9.5-13.8-20.9-16.5-33.1C144.8,323.9,137.9,325.7,138.9,330.2z"/>
	<path class="st2" d="M254.8,198.1c-24.2-15.5-54.6-17.9-81-6.5c-21.4,9.6-37.8,27.8-45.3,50c-5.2,16.3-5.6,33.8-1.2,50.3
		c1.1,4.4,8,2.6,6.9-1.9c-6.3-24.7-1.7-51.5,15.1-71.2c6.5-7.7,14.4-14.1,23.3-18.8c25.1-12.6,55-11.1,78.7,4.1
		C255.1,206.7,258.6,200.6,254.8,198.1L254.8,198.1z"/>
	<path class="st2" d="M289.7,292c3.5-13.5,3.9-27.6,1.2-41.3c-2.2-11.3-6.9-22-13.6-31.4c-3.3-4.6-7.1-8.8-11.3-12.7
		c-3.4-3.1-8.4,1.9-5,5c15.8,14.6,24.7,35.1,24.8,56.5c0,7.4-1,14.8-2.8,21.9C281.7,294.5,288.6,296.4,289.7,292L289.7,292z"/>
	<path class="st2" d="M231.6,256.4c6.5,3,12.4,7.3,17.2,12.5c5.3,5.2,9.5,11.3,12.6,18c0.6,1.9,2.5,2.9,4.4,2.5
		c1.9-0.5,3-2.5,2.5-4.4c-3.3-7.7-8.1-14.8-14-20.8c-5.3-5.9-11.8-10.7-19-14.1c-1.7-0.9-3.8-0.4-4.9,1.3
		C229.4,253.3,230,255.4,231.6,256.4L231.6,256.4z"/>
	<path class="st2" d="M155.1,288c7.9-9.2,16.9-17.3,26.8-24.3c1-0.7,2.1-1.3,3.1-2c0.2-0.1,0.5-0.2,0.7-0.4c0.4-0.5,0,0.1-0.3-0.1
		c-1.9-1.4-1,0.1-0.9,1c-0.1,1.5,0,3,0.2,4.5c0.5,1.6,1.5,2.9,3,3.6c3,1.6,5.7-0.1,8.3-1.6c2.4-1.4,4.9-2.8,7.3-4.3
		c6-3.6,12.2-6.9,18.6-9.8c1.7-1,2.3-3.2,1.3-4.9c-1-1.7-3.2-2.2-4.9-1.3c-5.7,2.5-11.2,5.4-16.5,8.6c-2.6,1.5-5.3,3.1-7.9,4.6
		c-1.2,0.5-2.3,1.2-3.4,1.9c-0.1,0.1-0.4,0.2-0.5,0.3c0.4,0.2,0.9,0.4,1.4,0.5c0.2-0.1,0.1,0.1,0.2-0.4c0.1-0.4,0.1-0.8,0-1.2
		c-0.1-3.3-1-7.3-4.5-8.4c-2.8-1-5.3,0.8-7.7,2.3c-5.2,3.4-10.1,7.3-14.7,11.5c-5.2,4.6-10.1,9.5-14.8,14.7
		C147,286.4,152,291.4,155.1,288L155.1,288z"/>
	<path class="st2" d="M582.8,449.9c2.5,1.8,4.8,3.8,7.3,5.6c1.3,0.9,2.6,1.9,3.9,2.7c1.4,1.2,3.1,2,4.9,2.3c1.7-0.3,3.3-1.1,4.7-2.2
		c1.3-0.9,2.6-1.8,3.9-2.7c2.5-1.9,5-3.9,7.5-5.7c1.6-1,2.2-3.2,1.3-4.9c-1-1.7-3.2-2.3-4.9-1.3c-4.7,3.5-9.1,7.4-14.3,10.2h3.6
		c-5.2-2.8-9.6-6.7-14.3-10.2c-1.7-1-3.9-0.4-4.9,1.3C580.6,446.7,581.1,448.9,582.8,449.9L582.8,449.9z"/>
	<path class="st0" d="M569.9,394.3c-2.8,3.1-6.1,7.6-8.8,10.7c-1.8,2.1-2.5,4.9-1.8,7.6c1,2.1,12.5,20.4,20.2,25.4
		c2.4-3.2,12.5-17.2,17.3-22.7C594.9,414,571.1,395.2,569.9,394.3z"/>
	<path class="st0" d="M627.8,394.3c2.8,3.1,6.1,7.6,8.8,10.7c1.8,2.1,2.5,4.9,1.8,7.6c-1,2.1-12.5,20.4-20.2,25.4
		c-2.4-3.2-12.5-17.2-17.3-22.7C602.7,414,626.6,395.2,627.8,394.3z"/>
	<path class="st2" d="M567.4,391.7c-2.3,2.6-4.5,5.4-6.7,8.2c-2,2.5-4.2,4.8-5,8c-1.1,4.4,0.9,7.4,3.1,10.9
		c2.7,4.2,5.6,8.2,8.6,12.1c2.8,3.9,6.3,7.3,10.2,10.1c1.7,0.9,3.8,0.4,4.9-1.3c5.5-7.4,10.7-15,16.8-22c1.4-1.4,1.3-3.7-0.1-5.1
		c-0.2-0.2-0.4-0.3-0.6-0.5c-0.5-0.4-1.1-0.8-1.6-1.2c0.8,0.6-0.1,0-0.2-0.2l-0.8-0.7l-1.6-1.3c-2.9-2.3-5.9-4.6-8.8-6.9
		c-4.3-3.4-8.7-6.8-13-10.3C571,390.4,568.8,390.4,567.4,391.7c-1.4,1.4-1.4,3.6,0,5c9.1,7.3,18.1,14.8,27.6,21.6l-0.7-5.6
		c-6.5,7.4-12,15.5-17.9,23.4l4.9-1.3c-3.1-2.3-5.8-5.1-8.1-8.2c-2.7-3.3-5.2-6.9-7.5-10.4c-0.8-1.3-1.6-2.5-2.4-3.8
		c-0.3-0.4-0.5-0.8-0.7-1.2c-0.1-0.1-0.1-0.2-0.2-0.4c0.1,0.5,0.2-0.7,0.2-0.9c0.4-2.4,2.6-4.4,4.1-6.2c1.9-2.4,3.8-4.8,5.8-7
		C575.4,393.4,570.4,388.3,567.4,391.7z"/>
	<path class="st2" d="M625.3,396.8c2,2.3,3.9,4.7,5.8,7c1.4,1.8,3.6,3.7,4.1,6c0.3,1.3,0.1,1.3-0.7,2.6s-1.6,2.6-2.4,3.8
		c-2.3,3.5-4.7,7-7.3,10.2c-2.3,3.2-5.1,6-8.2,8.4l4.9,1.3c-5.9-7.8-11.4-16-17.9-23.4l-0.7,5.6c9.4-6.8,18.5-14.3,27.6-21.6
		c1.4-1.4,1.4-3.6,0-5c-1.4-1.3-3.6-1.3-5,0c-4.3,3.5-8.7,6.8-13,10.3c-2.9,2.3-5.9,4.6-8.8,6.9c-0.5,0.4-1.1,0.9-1.6,1.3l-0.7,0.6
		c-0.1,0.1-1.1,0.9-0.3,0.3c-0.5,0.4-1.1,0.8-1.6,1.2c-1.7,1.1-2.2,3.3-1.2,5c0.1,0.2,0.3,0.4,0.5,0.6c6.1,6.9,11.3,14.6,16.8,22
		c1,1.7,3.2,2.2,4.9,1.3c3.9-2.8,7.3-6.2,10.2-10.1c3.1-3.9,5.9-7.9,8.6-12.1c2.2-3.5,4.2-6.5,3.1-10.9c-0.8-3.2-2.9-5.5-5-8
		c-2.2-2.7-4.4-5.5-6.7-8.2C627.2,388.3,622.2,393.4,625.3,396.8z"/>
	<path class="st2" d="M674.8,305.8c2.9-11.1,3.6-22.7,2.1-34.1c-1.3-9.6-4.3-18.9-8.8-27.4c-3.9-7.2-9-13.6-15.2-18.9
		c-6.6-5.9-14-10.8-21.9-14.7c-19.5-8.5-41.5-9.4-61.6-2.4c-16.2,5.8-30.1,16.5-39.8,30.7c-13.4,19.5-16.4,44.1-10.6,66.8
		c1.1,4.4,8,2.5,6.9-1.9c-4.9-18.8-3.1-39,6.6-56.1c7.6-13.3,19.1-23.9,33-30.3c17.9-7.9,38.1-8.9,56.6-2.7
		c7.9,2.9,15.3,7.1,21.8,12.5c5.8,4.3,10.9,9.6,15,15.6c5.2,8,8.8,17,10.5,26.4c2.1,11.5,1.6,23.3-1.4,34.6
		C666.8,308.4,673.7,310.3,674.8,305.8L674.8,305.8z"/>
	<path class="st2" d="M636.1,217.3c4.7-5.2,10.8-9.1,18-9.2c5.7-0.1,11.2,2,15.3,5.8c1.9,1.8,3.5,3.9,4.5,6.3
		c1.1,3.6,1.9,7.4,2.4,11.2c1.3,8.3,4.2,16.2,8.5,23.4c1.9,3.1,4.5,5.9,7.5,8c3.1,2,6.4,3.7,9.9,5.1l-1.3-4.9
		c-2.6,4.2-6,7.9-10,10.9c-4.2,2.9-9.3,4.3-14.5,3.8c-4.6-0.3-4.5,6.8,0,7.1c6.4,0.5,12.7-1.2,18-4.8c5-3.7,9.2-8.2,12.6-13.4
		c1-1.7,0.4-3.9-1.3-4.9c-3.1-1.3-6.2-2.8-9.1-4.6c-2.6-1.7-4.7-4.1-6.2-6.8c-4.5-7.7-6.4-16.1-8-24.7c-0.5-3.6-1.5-7.2-3.1-10.5
		c-1.6-2.8-3.6-5.4-6.2-7.4c-5.3-4.4-12-6.8-18.8-6.8c-9,0.3-17.5,4.4-23.3,11.3C628,215.7,633,220.8,636.1,217.3L636.1,217.3z"/>
	<path class="st2" d="M560.5,276.8c3.8,6.7,8.2,14.3,12.2,20.1c1.3,1.9,3.7,2.5,5.8,1.6c1-0.4,2-0.9,3-1.3c2.4-1.1,3.4-3.9,2.3-6.2
		c0,0,0-0.1,0-0.1c-2.7-5.7-7.4-15.1-10.2-20.6c-1.2-2.3-4-3.3-6.4-2.2c-1.5,0.7-3.1,1.4-4.6,2.1c-2.4,1.1-3.4,3.9-2.3,6.3
		C560.4,276.6,560.4,276.7,560.5,276.8z"/>
	<path class="st2" d="M617.3,258.4c-8.1,9-18.7,15.3-29.1,21.3c-8.8,5.2-17.9,9.8-27.3,13.7c-5.9,2.4-11.9,4.4-17.9,6.4
		c-4.3,1.4-2.5,8.3,1.9,6.9c9.5-3.2,18.9-6.6,28-10.7c5.8-2.6,11.3-5.8,16.8-8.9c5.9-3.3,11.8-6.8,17.4-10.7
		c5.6-3.7,10.7-8,15.3-12.9C625.3,260,620.3,255,617.3,258.4L617.3,258.4z"/>
	<path class="st2" d="M616.3,261.9c3.5,11.3,8,22.1,15.6,31.2c7,8.4,16.1,16.6,26.8,19.7c4.4,1.3,6.3-5.6,1.9-6.9
		c-9.5-2.7-17.4-10.5-23.7-17.9c-6.8-8.1-10.7-18-13.8-28.1C621.9,255.6,615,257.5,616.3,261.9L616.3,261.9z"/>
</g>
</svg>
