<?xml version="1.0" encoding="utf-8"?>
<!-- Generator: Adobe Illustrator 27.9.4, SVG Export Plug-In . SVG Version: 9.03 Build 54784)  -->
<svg version="1.1" id="Capa_1" xmlns="http://www.w3.org/2000/svg" xmlns:xlink="http://www.w3.org/1999/xlink" x="0px" y="0px"
	 viewBox="0 0 800 800" style="enable-background:new 0 0 800 800;" xml:space="preserve">
<style type="text/css">
	.st0{fill:#FFFFFF;}
	.st1{fill:#FAD97F;}
</style>
<g>
	<path class="st0" d="M212.1,224.9c0,25.7,20.7,46.5,46.5,46.5h306.2c-3.3-5.8-6.6-13.3-9.1-22.4H389.6v-16.6h163.4
		c0-5.8,0-10.8,0.8-16.6H327.4v-16.6h230.7c1.7-6.6,5-14.1,8.3-21.6H258.5C232.8,177.6,212.1,199.2,212.1,224.9z"/>
	<path class="st0" d="M258.5,287.9c-4.1,0-9.1-0.8-13.3-1.7c-13.3-2.5-24.9-10-33.2-19.1v341c0,24.9,5.8,43.1,18.3,54.8
		c14.1,13.3,33.2,12.4,33.2,12.4h323.6V287.9H258.5z"/>
	<path d="M604.5,177.6V161h-346c-34.8,0-63.1,28.2-63.1,63.1v384.1c0,29.9,8.3,52.3,24.1,67.2c16.6,15.8,36.5,16.6,43.1,16.6h341.8
		V271.3h-19.1c-4.1-4.1-32.4-35.7,0-93.8H604.5z M558.1,199.2H327.4v16.6h226.5c-0.8,5.8-0.8,10.8-0.8,16.6H389.6v16.6h165.9
		c2.5,9.1,5.8,16.6,9.1,22.4H258.5c-25.7,0-46.5-20.7-46.5-46.5s20.7-47.3,46.5-47.3h307.8C563,185.1,559.7,192.5,558.1,199.2
		L558.1,199.2z M587.1,675.4H263.5c0,0-19.1,0.8-33.2-12.4c-12.4-11.6-18.3-29.9-18.3-54.8v-341c8.3,9.1,19.9,16.6,33.2,19.1
		c4.1,0.8,9.1,1.7,13.3,1.7h328.6V675.4z"/>
	<path class="st1" d="M553.9,642.2V287.9H258.5c-5,0-9.1-0.8-13.3-1.7v355.9H553.9z"/>
	<path class="st0" d="M368.1,414.1c0,19.7,16,35.7,35.7,35.7c19.7,0,35.7-16,35.7-35.7c0,0,0,0,0,0c0-19.7-16-35.7-35.7-35.7
		C384,378.4,368.1,394.3,368.1,414.1C368.1,414.1,368.1,414.1,368.1,414.1z"/>
	<path d="M403.7,361.8c-29,0-52.3,23.2-52.3,52.3s23.2,52.3,52.3,52.3s52.3-23.2,52.3-52.3S432.8,361.8,403.7,361.8z M403.7,449.7
		c-19.9,0-35.7-15.8-35.7-35.7s15.8-35.7,35.7-35.7c19.9,0,35.7,15.8,35.7,35.7S423.6,449.7,403.7,449.7L403.7,449.7z"/>
	<path class="st0" d="M467.6,551c-7.5-32.4-33.2-56.4-63.9-56.4s-56.4,24.1-63.9,56.4H467.6z"/>
	<path d="M403.7,477.9c-44.8,0-81.3,39.8-83,89.6h165.1C485,517.8,448.5,477.9,403.7,477.9L403.7,477.9z M403.7,494.5
		c30.7,0,56.4,24.1,63.9,56.4H339.8C347.3,518.6,373,494.5,403.7,494.5z"/>
</g>
</svg>
