<?xml version="1.0" encoding="utf-8"?>
<!-- Generator: Adobe Illustrator 27.9.4, SVG Export Plug-In . SVG Version: 9.03 Build 54784)  -->
<svg version="1.1" id="Capa_1" xmlns="http://www.w3.org/2000/svg" xmlns:xlink="http://www.w3.org/1999/xlink" x="0px" y="0px"
	 viewBox="0 0 800 800" style="enable-background:new 0 0 800 800;" xml:space="preserve">
<style type="text/css">
	.st0{fill:#FFFFFF;}
	.st1{fill:#211715;}
	.st2{fill:#8CB8DF;}
	.st3{fill:#65A0D4;}
	.st4{fill:#3F88C9;}
	.st5{fill:#7A7473;}
	.st6{fill:#CFCFCF;}
</style>
<g>
	<path class="st0" d="M698.8,665.1l-1.8-1h0c-5.6,2.7-23.4,3.1-26.8,0.6c-6.4,7.4-15.7,8.5-24,7.3c-1.1-0.1-2.3-0.3-3.4-0.7
		c-3-1-5.7-2.6-8.1-4.7c0,0-0.1,0-0.1-0.1c-0.6,0.1-1,0.1-1,0.1c-1.4-0.8-5.6,0-7.3,2.6c-1.7,2.6-1.7,7.6-0.7,10.5
		c2.1,6.4,8.3,9.7,14.7,12c6.6,2.5,13.7,3.1,20.6,1.8c2.9-0.7,5.4-2.7,6.9-5.3c0.8-1.6,1.4-3.3,1.6-5l11,2.5
		c2.2,0.6,4.5,0.9,6.8,0.9c1.1,0,2.2-0.1,3.3-0.2c3.2-0.2,6.2-1.8,8.2-4.4c1.1-2.1,1.6-4.4,1.6-6.7
		C700.3,673.1,698.8,667.5,698.8,665.1z"/>
	<path class="st1" d="M630.1,665.5c0.9,3.5,4.1,5.7,7.2,7.3c1.8,1,3.7,1.8,5.7,2.4c1.9,0.4,3.9,0.6,5.8,0.7
		c7.6,0.8,15.3-1.4,21.3-6.1c1.4-1.4,1.4-3.6,0-5c-1.4-1.3-3.6-1.3-5,0c-4.4,3.2-9.8,4.6-15.2,4.1c-2.8,0-5.5-0.6-8-1.7
		c-1.3-0.6-2.6-1.3-3.8-2.2c-0.4-0.3-0.7-0.6-1-1c0.2,0.2,0.1,0.1-0.1-0.2c0.1,0.3,0.1,0.2,0-0.2
		C635.8,659.2,628.9,661.1,630.1,665.5L630.1,665.5z"/>
	<path class="st1" d="M670.7,668.8c4.6,1.1,9.3,1.5,13.9,1.1c4.9,0,9.7-0.9,14.2-2.7c1.7-1,2.3-3.2,1.3-4.9c-1-1.7-3.2-2.2-4.9-1.3
		c-0.6,0.3,0.8-0.3,0.1,0c-0.2,0.1-0.3,0.1-0.5,0.2c-0.4,0.1-0.8,0.3-1.3,0.4c-1,0.3-2,0.5-3,0.6l-0.8,0.1c-0.4,0.1,0.6-0.1-0.1,0
		c-0.6,0.1-1.2,0.1-1.8,0.2c-1.2,0.1-2.4,0.2-3.7,0.2c-2.3,0.1-4.7,0.1-7-0.1c-0.5,0-1-0.1-1.5-0.1c-0.3,0-0.5-0.1-0.8-0.1
		c1,0.1,0.1,0-0.1,0c-0.8-0.1-1.6-0.3-2.4-0.5c-1.9-0.5-3.9,0.6-4.4,2.5C667.6,666.3,668.8,668.3,670.7,668.8L670.7,668.8z"/>
	<path class="st1" d="M635.4,663.7c-2.9-1.2-6.1-0.9-8.8,0.7c-3,1.8-4.9,5.1-5.1,8.6c-0.8,7.1,2.5,14,8.5,17.9
		c6.6,4.3,14.3,6.7,22.2,7c7.5,0.4,15.7-1.2,19.1-8.8c2.9-6.5,1.7-14.2,0.2-20.8c-1-4.5-7.9-2.6-6.9,1.9c0.9,3.4,1.3,6.9,1.3,10.4
		c0,1-0.1,2.1-0.3,3.1c-0.1,0.5-0.2,1-0.4,1.4c0,0.1-0.6,1.4-0.2,0.7c-3.1,6.6-12.4,5.5-18.3,4.2c-5.8-1.3-13.5-3.7-16.7-9.1
		c-1.4-2.4-1.9-5.3-1.2-8.1c0.1-1,0.8-1.9,1.7-2.3c0.5-0.2,1-0.2,1.5-0.4c0.2-0.1,0.5,0.2-0.2-0.2
		C636,671.8,639.6,665.7,635.4,663.7L635.4,663.7z"/>
	<path class="st1" d="M695.3,665.1c0.1,2.7,0.5,5.4,1.1,8c0.1,0.4,0.1,0.7,0.2,1.1c0-0.9,0-0.2,0,0c0.1,0.5,0.1,1,0,1.5
		c0,0.4-0.1,0.9-0.1,1.3c-0.1,0.8,0.1-0.4-0.1,0.4c-0.1,0.4-0.2,0.9-0.3,1.3c0,0.1-0.4,1.1-0.3,0.8c0.1-0.3-0.4,0.6-0.4,0.7
		c-0.2,0.3-0.2,0.4,0,0c-0.1,0.1-0.2,0.2-0.3,0.4c-0.3,0.3-0.5,0.5-0.8,0.8c0.6-0.5-0.3,0.2-0.4,0.3c-0.3,0.2-0.7,0.4-1,0.5
		c-0.4,0.2-0.4,0.2,0,0c-0.2,0.1-0.3,0.1-0.5,0.2c-0.7,0.2-1.5,0.4-2.2,0.5c-0.3,0-0.2,0,0.2,0c-0.3,0-0.5,0.1-0.8,0.1
		c-0.4,0-0.9,0.1-1.3,0.1c-0.8,0-1.7,0-2.5,0c-0.4,0-0.8-0.1-1.2-0.1c-0.4-0.1-0.5-0.1-0.1,0c-0.2,0-0.3-0.1-0.5-0.1
		c-0.9-0.1-1.8-0.3-2.7-0.6c-1.9-0.5-3.9,0.6-4.4,2.5c-0.5,1.9,0.6,3.9,2.5,4.4c7.4,1.7,17.9,2,22.4-5.5c1.7-3.2,2.4-6.8,1.9-10.3
		c-0.2-1.7-0.5-3.5-0.9-5.2c-0.1-0.4-0.1-0.8-0.2-1.1c0-0.2-0.1-0.4-0.1-0.5c-0.1-0.4-0.1-0.3,0,0.2c-0.1-0.6-0.2-1.1-0.1-1.7
		c0-2-1.6-3.6-3.6-3.6C696.9,661.6,695.3,663.2,695.3,665.1L695.3,665.1z"/>
	<g>
		<path class="st1" d="M350.1,224.9c0-20,0-40,0-60c0-2-1.7-3.6-3.7-3.5c-0.6,0-1.2,0.2-1.7,0.5l-82.9,47.9L183,255.2l-35.2,20.3
			c-1.1,0.6-1.8,1.8-1.8,3.1c0,26.8,0,53.7,0,80.5c0,32.8,0,65.7,0,98.5c0,20.1,0,40.2,0,60.4c0,2,1.7,3.6,3.7,3.5
			c0.6,0,1.2-0.2,1.7-0.5c15.6-9,31.2-18,46.9-27.1c4-2.3,0.4-8.5-3.6-6.2c-15.6,9-31.2,18-46.9,27.1l5.4,3.1c0-35,0-70.1,0-105.1
			c0-30.6,0-61.1,0-91.7c0-14.2,0-28.4,0-42.7l-1.8,3.1l67.8-39.1l82.2-47.5l46.9-27.1l-5.4-3.1c0,20,0,40,0,60
			C343,229.5,350.1,229.5,350.1,224.9L350.1,224.9z"/>
		<path class="st0" d="M292.8,400c-3.4-2-11.9-6.9-21.8-12.7L214.6,420c0,9.9,0,146.4,0,155.1c11.3,6.6,20.2,11.6,24.1,13.8
			L292.8,400z"/>
		<path class="st2" d="M292.2,402.5c-16.7,9.6-34.7,20.1-53.4,30.9c0,17,0,133.3,0,155.5c0.6-0.4,37.4-21.6,53.9-31.2
			c0-7.3,0-128.1,0-155.5L292.2,402.5z"/>
		<path class="st0" d="M515.2,118.3c-3.4-2-11.9-6.9-21.8-12.7L437,138.2c0,9.9,0,300.1,0,308.8c11.3,6.6,20.2,11.6,24.1,13.8
			L515.2,118.3z"/>
		<path class="st0" d="M402.2,239.1c-3.4-2-11.9-6.9-21.8-12.7L324,259c0,9.9,0,243.9,0,252.6c11.3,6.6,20.2,11.6,24.1,13.8
			L402.2,239.1z"/>
		<path class="st3" d="M401.6,241.5l-53.4,30.9c0,17,0,230.8,0,253.1c0.6-0.4,37.4-21.6,53.9-31.2c0-7.3,0-225.7,0-253.1
			L401.6,241.5z"/>
		<path class="st4" d="M514.6,120.7l-53.4,30.9c0,17,0,287,0,309.3c0.6-0.4,37.4-21.6,53.9-31.2c0-7.3,0-281.8,0-309.3L514.6,120.7z
			"/>
		<path class="st1" d="M517,115.2c-7.3-4.2-14.5-8.4-21.8-12.7c-1.1-0.6-2.5-0.6-3.6,0l-38.2,22.1l-10.2,5.9l-5,2.9
			c-1.7,1-4.1,1.8-4.7,3.9c-0.1,0.8-0.2,1.5-0.1,2.3c0,5.7,0,11.4,0,17.1c0,10.7,0,21.4,0,32c0,14.1,0,28.3,0,42.4v48.2
			c0,16.5,0,32.9,0,49.4v45.8c0,12.7,0,25.5,0,38.2c0,8.6,0,17.2,0,25.7v6.8c0,0.5,0,1.1,0,1.6c0.1,2.8,2.6,3.8,4.8,5
			c3,1.8,6.1,3.5,9.2,5.3c4,2.3,7.9,4.5,11.9,6.8c4,2.3,7.6-3.9,3.6-6.2c-8-4.6-16.1-9.2-24.1-13.8l1.8,3.1c0-11.1,0-22.2,0-33.2
			c0-24.1,0-48.1,0-72.2c0-28.9,0-57.9,0-86.8v-75.5c0-13.3,0-26.6,0-39.9v-1.2l-1.8,3.1l56.4-32.6h-3.6c7.3,4.2,14.5,8.5,21.8,12.7
			C517.3,123.6,520.9,117.5,517,115.2L517,115.2z"/>
		<path class="st1" d="M436.8,142.2c6.8,3.9,13.6,7.9,20.4,11.8c1.7,1,3.9,0.4,4.9-1.3c1-1.7,0.4-3.9-1.3-4.9
			c-6.8-3.9-13.6-7.9-20.4-11.8c-1.7-1-3.9-0.4-4.9,1.3C434.5,139,435.1,141.2,436.8,142.2z"/>
		<path class="st1" d="M404,236c-7.3-4.2-14.5-8.4-21.8-12.7c-1.1-0.6-2.5-0.6-3.6,0L347,241.6c-5.6,3.2-11.2,6.5-16.8,9.7
			c-2.6,1.5-5.5,2.9-8,4.6c-1.1,0.8-1.8,2.1-1.8,3.5c-0.2,4.2,0,8.5,0,12.7c0,20.2,0,40.5,0,60.7c0,27.1,0,54.2,0,81.3
			c0,23.4,0,46.8,0,70.2c0,7,0,14.1,0,21.1c0,1.7,0,3.4,0,5.2c-0.2,1.6,0.5,3.2,1.8,4.1c4.7,3.2,9.9,5.7,14.8,8.5
			c3.1,1.8,6.2,3.5,9.2,5.3c4,2.3,7.6-3.9,3.6-6.2c-8-4.6-16.1-9.2-24.1-13.8l1.8,3.1c0-9.2,0-18.4,0-27.6c0-19.6,0-39.3,0-59
			c0-23.4,0-46.9,0-70.3c0-20.6,0-41.1,0-61.6c0-11,0-22,0-33V259l-1.8,3.1l56.4-32.6h-3.6c7.3,4.2,14.5,8.5,21.8,12.7
			C404.4,244.5,408,238.3,404,236L404,236z"/>
		<path class="st1" d="M323.8,263c6.8,3.9,13.6,7.9,20.4,11.8c1.7,1,3.9,0.4,4.9-1.3c1-1.7,0.4-3.9-1.3-4.9
			c-6.8-3.9-13.6-7.9-20.4-11.8c-1.7-1-3.9-0.4-4.9,1.3S322.1,262,323.8,263z"/>
		<path class="st1" d="M211,529.6c0,11.9,0,23.8,0,35.7c0,2.8,0,5.7,0,8.5c-0.2,2.1,1,4.1,2.9,4.9c3,1.8,6.1,3.5,9.1,5.3
			c4.6,2.6,9.2,5.2,13.8,7.8c4,2.3,7.6-3.9,3.6-6.2c-8-4.6-16.1-9.2-24.1-13.8l1.8,3.1c0-15.1,0-30.3,0-45.4
			C218.1,525,211,525,211,529.6L211,529.6z"/>
		<path class="st1" d="M294.6,396.9c-7.3-4.2-14.5-8.4-21.8-12.7c-1.1-0.6-2.5-0.6-3.6,0l-43.5,25.1l-11.4,6.6
			c-1.7,1-3.2,1.9-3.3,4.1c0,0.3,0,0.6,0,0.8v6.9c0,21.2,0,42.3,0,63.5c0,12.9,0,25.9,0,38.8c0,4.6,7.1,4.6,7.1,0
			c0-32.8,0-65.7,0-98.5c0-3.9,0-7.8,0-11.6l-1.8,3.1l56.4-32.6h-3.6c7.3,4.2,14.5,8.5,21.8,12.7
			C294.9,405.4,298.5,399.3,294.6,396.9L294.6,396.9z"/>
		<path class="st1" d="M214.4,423.9c6.8,3.9,13.6,7.9,20.4,11.8c1.7,1,3.9,0.4,4.9-1.3c1-1.7,0.4-3.9-1.3-4.9l0,0
			c-6.8-3.9-13.6-7.9-20.4-11.8c-1.7-1-3.9-0.4-4.9,1.3C212.1,420.8,212.7,422.9,214.4,423.9L214.4,423.9z"/>
		<path class="st1" d="M535.4,421.6c16.1-9.3,32.2-18.6,48.4-28L597,386c4-2.3,0.4-8.5-3.6-6.2c-17.7,10.2-35.3,20.4-53,30.6l-8.6,5
			C527.8,417.7,531.4,423.9,535.4,421.6L535.4,421.6z"/>
		<path class="st1" d="M154.8,642.6c16.1-9.3,32.2-18.6,48.4-28l13.2-7.6c4-2.3,0.4-8.5-3.6-6.2c-17.7,10.2-35.3,20.4-53,30.6
			c-2.9,1.7-5.7,3.3-8.6,5C147.2,638.7,150.8,644.9,154.8,642.6L154.8,642.6z"/>
		<path class="st1" d="M518.6,212.5c0-27.1,0-54.2,0-81.3c0-3.6,0-7.1,0-10.7c0-2-1.7-3.6-3.7-3.5c-0.6,0-1.2,0.2-1.7,0.5
			l-34.9,20.2c-6.1,3.5-12.3,6.8-18.2,10.5c-1.8,1-2.8,2.9-2.5,4.9c0,5.4,0,10.8,0,16.2c0,22.4,0,44.9,0,67.3c0,29.8,0,59.6,0,89.4
			c0,27.9,0,55.9,0,83.8c0,16.3,0,32.6,0,48.9v2.3c0,2,1.7,3.6,3.7,3.5c0.6,0,1.2-0.2,1.7-0.5c13.1-7.7,26.3-15.2,39.4-22.8l12.1-7
			c2-1.1,4-2,4.1-4.6c0-0.3,0-0.7,0-1v-11.1v-48.9c0-23.7,0-47.4,0-71.1c0-25.3,0-50.7,0-76L518.6,212.5c0-4.6-7.1-4.6-7.1,0
			l0,111.4c0,29.1,0,58.1,0,87.2c0,6.2,0,12.4,0,18.6l1.8-3.1c-16.3,9.4-32.6,18.8-48.9,28.2c-1.7,1-3.4,1.9-5.1,2.9l5.4,3.1
			c0-12.6,0-25.2,0-37.8c0-23.9,0-47.9,0-71.8c0-28,0-55.9,0-83.9v-73.5c0-13.5,0-27.1,0-40.6v-1.7l-1.8,3.1l53.9-31.2l-5.4-3.1
			c0,23,0,46,0,69c0,7.7,0,15.3,0,23C511.5,217.1,518.6,217.1,518.6,212.5L518.6,212.5z"/>
		<path class="st1" d="M399.8,238.5L372,254.5l-14.6,8.4l-7.2,4.2c-2.3,1.3-5.4,2.4-5.6,5.4c-0.2,4,0,8.1,0,12.1V338
			c0,24.5,0,49,0,73.5c0,23.1,0,46.2,0,69.3c0,14.2,0,28.3,0,42.5v2.2c0,2,1.7,3.6,3.7,3.5c0.6,0,1.2-0.2,1.7-0.5
			c9.3-5.5,18.7-10.8,28.1-16.2l20.7-11.9c2.5-1.5,6.8-2.9,6.9-6.2c0-0.5,0-0.9,0-1.4v-42.3c0-25.5,0-50.9,0-76.4l0-79.1
			c0-17,0-34,0-51v-2.8c0-2-1.7-3.6-3.7-3.5c-0.6,0-1.2,0.2-1.7,0.5L399.8,238.5c-4,2.3-0.4,8.5,3.6,6.2l0.5-0.3l-5.4-3.1
			c0,11.6,0,23.3,0,34.9c0,20.2,0,40.4,0,60.6c0,22.8,0,45.6,0,68.4c0,19.4,0,38.8,0,58.2c0,10,0,20,0,30v0.9l1.8-3.1
			c-16.3,9.4-32.6,18.8-48.9,28.2c-1.7,1-3.4,1.9-5.1,2.9l5.4,3.1c0-10.7,0-21.5,0-32.2c0-19.4,0-38.9,0-58.3c0-22.6,0-45.2,0-67.8
			c0-19.7,0-39.5,0-59.2c0-11.3,0-22.6,0-33.9v-1.6l-1.8,3.1l53.4-30.9C407.4,242.3,403.8,236.2,399.8,238.5z"/>
		<path class="st1" d="M235.2,516.5c0,24.1,0,48.3,0,72.4c0,2,1.7,3.6,3.7,3.5c0.6,0,1.2-0.2,1.7-0.5c12.9-7.6,26-15,39-22.5l12-6.9
			c2.1-1.2,4.6-2.1,4.7-4.9c0-0.4,0-0.8,0-1.2c0-3.7,0-7.5,0-11.2c0-14.9,0-29.8,0-44.7c0-18.1,0-36.2,0-54.4c0-13.7,0-27.3,0-41v-3
			c0-2-1.7-3.6-3.7-3.5c-0.6,0-1.2,0.2-1.7,0.5l-35,20.2c-6.1,3.5-12.3,6.8-18.2,10.5c-1.7,0.9-2.7,2.7-2.5,4.6v3
			c0,16.5,0,33,0,49.4c0,10.2,0,20.4,0,30.6c0,4.6,7.1,4.6,7.1,0c0-24.6,0-49.2,0-73.8v-10.2l-1.8,3.1l53.9-31.2l-5.4-3.1
			c0,20.9,0,41.7,0,62.6c0,24.7,0,49.4,0,74.1c0,6.3,0,12.6,0,18.9l1.8-3.1c-16.3,9.4-32.6,18.8-48.9,28.2c-1.7,1-3.4,1.9-5.1,2.9
			l5.4,3.1c0-24.1,0-48.3,0-72.4C242.3,511.9,235.2,511.9,235.2,516.5L235.2,516.5z"/>
		<path class="st1" d="M500.3,205c15.6-9,31.1-18,46.7-27c4-2.3,0.4-8.5-3.6-6.2c-15.6,9-31.1,18-46.7,27
			C492.8,201.2,496.3,207.4,500.3,205z"/>
		<path class="st1" d="M100.4,372.5c11.1-6.4,22.2-12.8,33.3-19.2l49.5-28.6l22.7-13.1c4-2.3,0.4-8.5-3.6-6.2
			c-14.7,8.5-29.5,17-44.2,25.5l-46.5,26.9l-14.8,8.6C92.8,368.6,96.4,374.8,100.4,372.5L100.4,372.5z"/>
		<path class="st0" d="M668.3,422.2c-0.3,1.4-0.9,2.8-1.7,4c-1.7,2.4-3.9,4.4-6.5,5.7c4.7,8.5,12.7,14.6,22.1,16.9
			c-1.7,1.5-3.1,3.3-4.1,5.4c-4-0.3-8,0-11.9,0.9c-9.8,1.9-23.4,6.4-26.9,8.7c-2.2,1.5-4.2,3.4-5.9,5.5l2.3-7.3
			c0.9-2.7,0.9-5.6,0.1-8.3c-1.1-2.6-3.1-4.8-5.6-6.2l0.9-5.1c0,0,0,0-0.1-0.1c-4.5-4.7-7.5-10.6-8.6-17
			c-2.2-11.4,0.5-23.3,7.3-32.7c1.6-2.1,3.3-4.1,5.3-5.8c5.7,10,13.8,18.5,23.6,24.8c3.5-0.9,7.2,0.8,8.9,3.9
			C668.6,417.7,668.8,420,668.3,422.2z"/>
		<path class="st0" d="M626.5,446.1c-2-0.5-4-0.5-6-0.1c-5.9,1.3-10,6.8-9.4,12.9l0.2,3.6c0.5,0,1.1,0.1,1.5,0.4
			c3.7,1.8,14.2,7.6,17,9.4l1.1,0.7c2-3.1,4.5-5.9,7.4-8.2l-2.5-2.6c0.9-2.7,0.9-5.6,0.1-8.3C634.1,449.9,630.6,447.1,626.5,446.1z"
			/>
		<path class="st5" d="M654.1,377.2c-7.1,1.5-13.7,4.9-19,9.7c5.8,10,13.9,18.5,23.6,24.8c3.5-0.9,7.2,0.8,8.9,3.9
			c1.5,3.5,1.2,7.4-0.9,10.6c-1.7,2.4-3.9,4.4-6.5,5.7c4.7,8.5,12.7,14.6,22.1,16.9c0.2-0.2,0.3-0.4,0.5-0.6
			c5-5.5,8.5-9.3,11.6-14.6c4.3-7.5,6-16.2,4.9-24.8c-2.5-17.2-17.1-31.5-34.4-32.5C661.2,376.2,657.6,376.5,654.1,377.2z"/>
		<path class="st1" d="M640.1,409.7c-0.2,1.7-1.2,3.2-2.7,4.1c-1,0.5-2.2,0.7-3.3,0.3c-1.5-0.4-2.8-1.5-3.3-3c-0.8-2.4,0-5,2-6.5
			c2-1.4,4.7-1,6.2,0.9C640,406.6,640.4,408.2,640.1,409.7z"/>
		<path class="st0" d="M683,563.4c2-0.3,4.1-0.6,6.2-1c2.9-0.5,7.7-1.7,9.3-3.6c2-2.4,1.9-4.9,2-8.4c0.8-27.2,2.4-47.6-2.4-70.8
			c-1.5-7.3-3.6-14.8-8.8-20.1s-11.8-6.5-23.1-4.3c-9.8,1.9-23.4,6.4-26.9,8.7c-3.4,2.4-6.3,5.5-8.5,9.1l-1.1-0.7
			c-2.8-1.8-13.3-7.6-17-9.4c-0.8-0.3-1.6-0.4-2.5-0.3c-1.1,0.2-1.6,1.4-2,2.4c-2.6,9.1-4.5,18.5-5.8,27.9
			c-1.6,9.5-1.8,19.3-0.5,28.8c0.6,3.7,2.7,7,5.7,9.1c2.7,2.2,6.6,2,10,1.2c3.5-0.8,6.8-2.3,9.8-4.2l-0.1,11.8
			c0,5.5,0.2,11.9,0.2,11.9c-0.1,3,1.4,8,3.9,9.7c2.2,1.5,5.1,2.2,11.6,3.4C656.5,566.9,668.5,565.7,683,563.4z"/>
		<path class="st6" d="M658.5,565.8c-5.1,0-10.3-0.4-15.4-1.3c-7.4-1.3-10.1-2-12.4-4c-0.1,16.1,1.1,79.2,2.4,102.1l0.4,1.9
			c0.5,2.8,4.8,5.1,9.3,6.9c1.1,0.4,2.2,0.6,3.4,0.7c8.3,1.1,17.6,0,24-7.3c4.1,3,29.8,1.8,28.5-2.8c-0.8-22.8-1.6-68.8-0.9-89.3
			c0,0-0.2-7-0.3-13c-2.6,1.4-5.4,2.3-8.2,2.7C679.1,564.4,668.8,565.5,658.5,565.8z"/>
		<path class="st1" d="M627.2,565c0.1,26.6,0.7,53.1,1.6,79.7c0.2,6.1,0.4,12.2,0.8,18.3c0.2,4.6,7.4,4.6,7.1,0
			c-1.4-26.5-1.8-53.1-2.2-79.6c-0.1-6.1-0.2-12.2-0.2-18.3C634.3,560.4,627.2,560.4,627.2,565L627.2,565z"/>
		<path class="st1" d="M694.2,572.7c-0.8,24.9-0.2,49.8,0.5,74.6c0.1,5.9,0.3,11.8,0.6,17.8c0.2,4.6,7.3,4.6,7.1,0
			c-1-24.9-1.3-49.8-1.3-74.6c0-5.9,0.1-11.9,0.3-17.8C701.5,568.1,694.4,568.1,694.2,572.7z"/>
		<path class="st1" d="M666.2,598c-1,19.6-1.5,39.3-1.8,59c0,3.4-0.2,6.8,0.1,10.2c0.3,4.6,7.5,4.6,7.1,0c-0.6-7.6,0-15.4,0.1-23
			c0.3-11.1,0.6-22.2,1-33.3c0.2-4.3,0.3-8.5,0.5-12.8C673.6,593.4,666.5,593.4,666.2,598L666.2,598z"/>
		<path class="st1" d="M643.3,505.9c-4.8,6.7-10,13.7-16.8,18.3c-3.3,2.3-7,3.9-10.9,4.6c-3.7,0.7-7.4-1.2-9-4.7
			c-0.8-1.7-1.3-3.5-1.3-5.4c-0.3-2.7-0.5-5.4-0.5-8.1c-0.1-5.4,0.3-10.7,1.1-16.1c0.8-5,1.6-9.9,2.5-14.9c0.5-2.5,1-4.9,1.6-7.4
			c0.3-1.4,0.7-2.7,1.1-4c0.2-0.5,0.3-1.1,0.5-1.6c0.1-0.3,0.2-0.6,0.3-0.9c0.1-0.4-0.2-0.3-0.9,0.2c0,0,3.1,1.4,3.4,1.6
			c1.8,0.9,3.6,1.9,5.3,2.9c2.8,1.6,5.7,3.1,8.4,4.8c3.9,2.5,7.5-3.7,3.6-6.2c-3-1.9-6.1-3.6-9.1-5.3c-3.1-1.7-6.8-4.4-10.4-4.9
			c-7-0.9-7.9,7.2-9.1,12.3c-1.4,6-2.5,12.1-3.4,18.1c-1.1,6.2-1.7,12.4-1.9,18.7c0,2.8,0,5.7,0.3,8.5c0.1,3,0.6,6,1.5,8.9
			c1.8,4.6,5.9,9.2,10.9,10.2c5,1.1,10.4-0.5,14.9-2.6c10.4-4.8,17.7-14.6,24.2-23.7c1-1.7,0.4-3.9-1.3-4.9
			C646.5,503.7,644.3,504.2,643.3,505.9L643.3,505.9z"/>
		<path class="st1" d="M639.2,463c2.7-7.5-0.9-15.8-8.2-19c-6.6-3.1-14.9-2.3-19.8,3.5c-2.7,3.2-4.1,7.2-3.8,11.4
			c0,2,1.6,3.5,3.6,3.6c2,0,3.6-1.6,3.6-3.6c0-0.5,0-0.9,0-1.4c0-0.1,0.2-1.5,0-0.7c0.1-0.8,0.3-1.5,0.6-2.2c0.2-0.4,0.2-0.4,0,0
			c0.1-0.2,0.2-0.4,0.3-0.6c0.1-0.3,0.3-0.6,0.5-0.8c0.1-0.1,0.9-1.1,0.4-0.6c0.3-0.3,0.6-0.6,0.9-0.9c0.2-0.2,0.5-0.4,0.7-0.6
			c-0.6,0.5,0.5-0.3,0.6-0.4c0.4-0.2,0.8-0.4,1.2-0.6c-0.6,0.3,0.3-0.1,0.4-0.1c0.4-0.1,0.9-0.3,1.3-0.4c0.2,0,0.4-0.1,0.6-0.1
			c-0.4,0-0.4,0,0,0c0.8,0,1.5,0,2.3,0c0.4,0,0.4,0,0,0c0.2,0,0.4,0.1,0.7,0.1c0.3,0.1,0.7,0.1,1,0.2c0.4,0.1,0.9,0.3,1.3,0.4
			c-0.6-0.2,0.6,0.3,0.7,0.3c0.3,0.2,0.6,0.3,0.9,0.5c0.1,0.1,1.2,0.8,0.6,0.4c0.6,0.5,1.2,1,1.7,1.6c0.3,0.3,0.3,0.3,0.1,0
			c0.1,0.2,0.3,0.4,0.4,0.5c0.2,0.4,0.4,0.8,0.7,1.1c0.4,0.6-0.1-0.4,0.2,0.4c0.2,0.5,0.3,1,0.4,1.5c-0.1-0.5,0,0.7,0,0.8
			c0,0.5,0,0.9,0,1.4c0,0.5,0,0.5,0,0.2c0,0.3-0.1,0.5-0.1,0.8c-0.1,0.5-0.2,0.9-0.4,1.4c-0.5,1.9,0.6,3.9,2.5,4.4
			C636.7,466,638.7,464.9,639.2,463L639.2,463z"/>
		<path class="st1" d="M623.8,539.5c0,4,0.1,7.9,0.2,11.9c-0.1,4.3,1.5,8.6,4.4,11.8c2.5,2.5,6.3,3.3,9.7,4
			c5.2,1.1,10.5,1.8,15.9,2.1c11,0.5,22-1.1,32.8-2.9c4.3-0.7,9.2-1.3,12.9-3.9c4.3-3.1,4.3-8.3,4.4-13c0.6-21.2,2-42.5-1.2-63.5
			c-1.5-9.9-3.5-20.9-10.5-28.5c-6.1-6.6-14.7-7.6-23.2-6.4c-10.2,1.4-20.1,4.3-29.4,8.5c-4.6,2.4-8.4,6-11.2,10.4
			c-3.7,5.2-6.9,10.7-9.5,16.4c-0.9,1.7-0.4,3.9,1.3,4.9c1.7,1,3.9,0.4,4.9-1.3c2.1-4.6,4.6-9,7.3-13.2c2.4-3.7,5.1-7.7,8.9-10
			c2.6-1.4,5.3-2.5,8.2-3.4c4.1-1.4,8.3-2.6,12.5-3.7c6.8-1.7,15.5-3.9,21.9,0c7.1,4.3,9.3,13.7,10.8,21.2
			c3.7,18.2,3.3,36.8,2.6,55.3c-0.2,5.2-0.4,10.4-0.5,15.6c0,1.5,0,3.5-1.1,4.7c-1.2,0.9-2.7,1.5-4.2,1.8c-4.7,1.1-9.4,1.9-14.1,2.4
			c-4.7,0.7-9.5,1.2-14.3,1.5c-5.2,0.3-10.3,0.1-15.5-0.5c-4.4-0.3-8.8-1.3-12.9-2.8c-1.1-0.5-2-1.4-2.5-2.5c-0.7-1.6-1.1-3.2-1.1-5
			c-0.1-4-0.2-7.9-0.2-11.9C631,535,623.8,534.9,623.8,539.5L623.8,539.5z"/>
		<path class="st1" d="M681.7,455.3c2-2.8,4.2-5.4,6.7-7.8c2.8-3,5.3-6.1,7.5-9.5c4.6-7,7.1-15.2,7.3-23.6c-0.1-14.6-7.7-28-20-35.7
			c-12.4-7.7-28.3-7.5-41.1-0.8c-14.1,7.5-23.1,21.9-23.8,37.8c-0.9,17.7,10.5,38.2,30.3,37.6c4.6-0.1,4.6-7.3,0-7.1
			c-14.7,0.4-22.9-14.5-23.2-27.5c-0.4-13.5,6.5-26.2,18-33.3c10.3-6.2,23.7-7.4,34.4-1.5c10.4,5.7,17.2,16.1,18.3,27.9
			c0.5,8.2-1.8,16.3-6.4,23c-2.2,3.2-4.6,6.1-7.3,8.9c-2.5,2.5-4.8,5.2-6.7,8.1C673.2,455.6,679.4,459.2,681.7,455.3L681.7,455.3z"
			/>
		<path class="st1" d="M633.3,391c5.9,9.3,13.7,17.3,22.9,23.4c1.7,1,3.9,0.4,4.9-1.3c0.9-1.7,0.4-3.9-1.3-4.9
			c-1.1-0.7-2.1-1.4-3.2-2.2l-0.7-0.5l-0.3-0.2c0.2,0.1,0.2,0.1,0,0c-0.5-0.4-1.1-0.8-1.6-1.3c-1.9-1.6-3.8-3.3-5.5-5.1
			c-1.8-1.8-3.4-3.7-5-5.6l-0.2-0.3c0.1,0.2,0.1,0.2,0,0c-0.2-0.2-0.4-0.5-0.6-0.7c-0.4-0.5-0.7-1-1.1-1.5c-0.8-1.1-1.5-2.2-2.2-3.4
			c-1-1.7-3.2-2.3-4.9-1.3C632.9,387.1,632.3,389.3,633.3,391L633.3,391z"/>
		<path class="st1" d="M659.6,415.2c0.2,0,1-0.1,0.2-0.1c0.3,0,0.6,0,0.9,0s0.6,0,0.9,0c-0.5,0-0.4-0.1,0,0c0.3,0.1,0.5,0.2,0.8,0.2
			c0.4,0.1-0.5-0.3,0.1,0c0.2,0.1,0.5,0.3,0.7,0.4c0.2,0.1,0.7,0.6,0.2,0.1c0.2,0.2,0.4,0.4,0.6,0.6c0.5,0.5-0.2-0.5,0.2,0.2
			c0.1,0.2,0.3,0.4,0.4,0.6c0.1,0.1,0.1,0.3,0.2,0.4c-0.1-0.3-0.1-0.4-0.1-0.1c0.1,0.2,0.2,0.5,0.2,0.8c0.1,0.3,0.2,1,0.1,0.3
			c0.1,0.7,0.1,1.3,0,2c0,0.8,0.1-0.5,0,0.4c-0.1,0.3-0.1,0.5-0.2,0.8c-0.1,0.3-0.2,0.6-0.3,1c-0.1,0.2-0.3,0.7-0.1,0.2
			c-0.3,0.6-0.6,1.2-1,1.7c-0.6,0.9,0.4-0.5-0.2,0.3c-0.2,0.3-0.4,0.5-0.7,0.8c-0.4,0.5-0.9,0.9-1.3,1.3c-0.2,0.1-0.6,0.5-0.2,0.2
			c-0.3,0.2-0.6,0.4-0.8,0.6c-0.6,0.4-1.1,0.7-1.7,1c-0.3,0.2-0.6,0.3-0.9,0.4c0.6-0.2-0.2,0.1-0.4,0.1c-1.9,0.5-3,2.5-2.5,4.4
			c0.5,1.9,2.5,3,4.4,2.5c7-2.5,13-8.5,13.1-16.3c0.1-3.9-1.7-7.5-4.7-9.8c-2.8-2-6.4-2.7-9.8-1.9c-1.9,0.5-3,2.5-2.5,4.4
			C655.7,414.6,657.7,415.7,659.6,415.2L659.6,415.2z"/>
		<path class="st1" d="M658.2,435.7c4.9,7.6,12.4,13.3,21,16.1c1.9,0.5,3.9-0.6,4.4-2.5c0.5-1.9-0.6-3.8-2.5-4.4
			c-0.9-0.3-1.8-0.7-2.7-1c0.8,0.3-0.1,0-0.2-0.1c-0.2-0.1-0.4-0.2-0.5-0.2c-0.4-0.2-0.9-0.4-1.3-0.6c-1.7-0.9-3.4-1.9-5-3.1
			c-0.4-0.3,0.6,0.5-0.1,0c-0.2-0.1-0.4-0.3-0.6-0.4c-0.4-0.3-0.7-0.6-1.1-0.9c-0.7-0.6-1.4-1.3-2-2c-0.3-0.4-0.7-0.7-1-1.1
			c-0.2-0.2-0.3-0.4-0.5-0.6c-0.1-0.1-0.6-0.7-0.3-0.3s-0.2-0.3-0.3-0.3c-0.1-0.2-0.3-0.4-0.4-0.6c-0.3-0.4-0.6-0.9-0.9-1.4
			c-1-1.7-3.2-2.3-4.9-1.3C657.8,431.8,657.2,434,658.2,435.7L658.2,435.7z"/>
	</g>
</g>
</svg>
