<?xml version="1.0" encoding="utf-8"?>
<!-- Generator: Adobe Illustrator 27.9.4, SVG Export Plug-In . SVG Version: 9.03 Build 54784)  -->
<svg version="1.1" id="Layer_1" xmlns="http://www.w3.org/2000/svg" xmlns:xlink="http://www.w3.org/1999/xlink" x="0px" y="0px"
	 viewBox="0 0 512 436.5" style="enable-background:new 0 0 512 436.5;" xml:space="preserve">
<style type="text/css">
	.st0{fill:#8DC3E9;}
	.st1{fill:#FFE49C;}
	.st2{fill:#FFD155;}
	.st3{fill:#48AEE2;}
</style>
<g>
	<g>
		<path class="st0" d="M256,149.7c-25.9,0-47-21.1-47-47s21.1-47,47-47s47,21.1,47,47S281.9,149.7,256,149.7z"/>
		<path class="st0" d="M331.7,262.8H180.3c-6.3,0-11.3-5.1-11.3-11.3c0-48,39.1-87.1,87.1-87.1s87.1,39.1,87.1,87.1
			C343.1,257.7,338,262.8,331.7,262.8z"/>
	</g>
	<g>
		<path class="st1" d="M278,379.4l-22-11.6l-22,11.6c-8.3,4.4-18-2.7-16.4-12l4.2-24.5L204,325.6c-6.7-6.5-3-18,6.3-19.3l24.6-3.6
			l11-22.3c4.1-8.4,16.2-8.4,20.3,0l11,22.3l24.6,3.6c9.3,1.3,13,12.8,6.3,19.3L290.2,343l4.2,24.5C296,376.8,286.2,383.7,278,379.4
			z"/>
		<path class="st1" d="M151.7,379.4l-22-11.6l-22,11.6c-8.3,4.4-18-2.7-16.4-12l4.2-24.5l-17.8-17.3c-6.7-6.5-3-18,6.3-19.3
			l24.6-3.6l11-22.3c4.1-8.4,16.2-8.4,20.3,0l11,22.3l24.6,3.6c9.3,1.3,13,12.8,6.3,19.3L163.9,343l4.2,24.5
			C169.7,376.7,160,383.8,151.7,379.4z"/>
	</g>
	<path class="st2" d="M404.3,379.4l-22-11.6l-22,11.6c-8.3,4.4-18-2.7-16.4-12l4.2-24.5l-17.8-17.3c-6.7-6.5-3-18,6.3-19.3l24.6-3.6
		l11-22.3c4.1-8.4,16.2-8.4,20.3,0l11,22.3l24.6,3.6c9.3,1.3,13,12.8,6.3,19.3L416.5,343l4.2,24.5
		C422.3,376.7,412.6,383.8,404.3,379.4z"/>
	<g>
		<path class="st3" d="M303,102.7c0-25.9-21.1-47-47-47v93.9C281.9,149.7,303,128.6,303,102.7z"/>
		<path class="st3" d="M256,164.4v98.4h75.7c6.3,0,11.3-5.1,11.3-11.3C343.1,203.4,304,164.4,256,164.4z"/>
	</g>
	<path class="st2" d="M301.8,306.3l-24.6-3.6l-11-22.3c-1.9-3.9-5.9-6.3-10.2-6.3v93.7l22,11.6c8.3,4.3,18-2.6,16.4-12l-4.2-24.5
		l17.8-17.3C314.7,319.1,311,307.6,301.8,306.3z"/>
</g>
</svg>
