<?xml version="1.0" encoding="utf-8"?>
<!-- Generator: Adobe Illustrator 27.9.4, SVG Export Plug-In . SVG Version: 9.03 Build 54784)  -->
<svg version="1.1" id="Layer_1" xmlns="http://www.w3.org/2000/svg" xmlns:xlink="http://www.w3.org/1999/xlink" x="0px" y="0px"
	 viewBox="0 0 392.6 392.6" style="enable-background:new 0 0 392.6 392.6;" xml:space="preserve">
<style type="text/css">
	.st0{fill:#FFFFFF;}
	.st1{fill:#194F82;}
	.st2{fill:#56ACE0;}
	.st3{fill:#FFC10D;}
</style>
<g>
	<path class="st0" d="M211.1,80.8c-60.7-0.8-103,42.8-104.9,97.1c0,0.4,0,0.8,0,1.2c0,0.9-0.2,1.8-0.5,2.7l-16.3,40.1h26.5
		c4,0,7.2,3.2,7.2,7.2v27.7c0,9.3,7.6,16.9,16.9,16.9h26c4,0,7.2,3.2,7.2,7.2v31h107.5c0.7-36.2,6.4-69.9,17.1-100.2
		c4.2-11.9,6-24.3,5.5-37C301,125.1,260.6,83.9,211.1,80.8z"/>
	<path class="st1" d="M319.4,174C317,117.2,270.6,69.9,213.9,66.4c-65.1-4.2-119.5,47.2-120.3,111.3l-19.8,48.7
		c-2.1,4.1,1.2,9.7,6.7,9.9h30v20.5c0,17.3,14.1,31.4,31.4,31.4h18.7v31c0,4,3.2,7.2,7.2,7.2h121.8c4,0,7.2-3.2,7.2-7.2
		c0-37.3,5.5-71.8,16.3-102.6C317.9,203,320,188.7,319.4,174z M299.5,211.8c-10.7,30.3-16.4,64-17.1,100.2H175v-31
		c0-4-3.2-7.2-7.2-7.2h-26c-9.3,0-16.9-7.6-16.9-16.9v-27.7c0-4-3.2-7.2-7.2-7.2H91.1l16.3-40c0.3-0.9,0.5-1.8,0.5-2.7
		c0-0.4,0-0.8,0-1.2c1.9-54.3,44.2-97.9,104.9-97.1c49.4,3.1,89.9,44.4,92,93.9C305.5,187.4,303.7,199.9,299.5,211.8z"/>
	<path class="st2" d="M117.1,183.3l-9.8,24H134v49.4c0,1.3,1.1,2.4,2.4,2.4h47.7v38.2h79c1.8-32.5,7.6-62.8,17.4-90.5
		c3.6-10.1,5.1-20.7,4.7-31.6c-1.8-42.3-36.3-77.4-78.5-80.1c-1.8-0.1-3.7-0.2-5.5-0.2c-30.1,0-56.6,15.9-71.4,39.8h18.6
		c4,0,7.2,3.2,7.2,7.2c0,4-3.2,7.2-7.2,7.2h-25.8c-1.8,4.5-3.1,9.3-4,14.1h12.6c4,0,7.2,3.2,7.2,7.2c0,4-3.2,7.2-7.2,7.2h-14"/>
	<path class="st3" d="M196.3,123.6c-1.4,0-31.1,2.4-36.1,31.1c-1.8,10,1.2,20,7.4,27.9c11.8,15,18.3,32.1,19.1,49.8h19.2
		c0.8-17.6,7.4-34.8,19.2-49.9c5-6.5,7.7-14.2,7.7-22.4C232.8,140,216.4,123.6,196.3,123.6z"/>
	<rect x="186.7" y="246.8" class="st0" width="19.1" height="15.2"/>
	<path class="st1" d="M247.3,160.1c0-28.1-22.8-50.9-50.9-50.9c-1.9,0-41.9-1.1-50.4,43.5c-2.7,13.9,1.7,27.8,10.3,38.8
		c10.5,13.4,16.2,28.9,16.2,44.5v33.3c0,3.9,3.2,7.2,7.2,7.2h33.6c4,0,7.2-3.2,7.2-7.2l0-33.3c0-15.6,5.6-31,16.2-44.6
		C243.6,182.4,247.3,171.6,247.3,160.1z M205.9,246.8v15.2h-19.1v-15.2H205.9z M206,232.4h-19.2c-0.8-17.7-7.4-34.9-19.1-49.8
		c-6.2-7.9-9.1-17.8-7.4-27.9c5-28.7,34.7-31.1,36.1-31.1c20.1,0,36.5,16.3,36.5,36.5c0,8.2-2.7,15.9-7.7,22.4
		C213.4,197.6,206.8,214.8,206,232.4z"/>
</g>
</svg>
